G04 #@! TF.GenerationSoftware,KiCad,Pcbnew,6.0.8-f2edbf62ab~116~ubuntu22.04.1*
G04 #@! TF.CreationDate,2022-11-21T22:24:26-03:00*
G04 #@! TF.ProjectId,pip,7069702e-6b69-4636-9164-5f7063625858,rev?*
G04 #@! TF.SameCoordinates,Original*
G04 #@! TF.FileFunction,Paste,Top*
G04 #@! TF.FilePolarity,Positive*
%FSLAX46Y46*%
G04 Gerber Fmt 4.6, Leading zero omitted, Abs format (unit mm)*
G04 Created by KiCad (PCBNEW 6.0.8-f2edbf62ab~116~ubuntu22.04.1) date 2022-11-21 22:24:26*
%MOMM*%
%LPD*%
G01*
G04 APERTURE LIST*
G04 Aperture macros list*
%AMRoundRect*
0 Rectangle with rounded corners*
0 $1 Rounding radius*
0 $2 $3 $4 $5 $6 $7 $8 $9 X,Y pos of 4 corners*
0 Add a 4 corners polygon primitive as box body*
4,1,4,$2,$3,$4,$5,$6,$7,$8,$9,$2,$3,0*
0 Add four circle primitives for the rounded corners*
1,1,$1+$1,$2,$3*
1,1,$1+$1,$4,$5*
1,1,$1+$1,$6,$7*
1,1,$1+$1,$8,$9*
0 Add four rect primitives between the rounded corners*
20,1,$1+$1,$2,$3,$4,$5,0*
20,1,$1+$1,$4,$5,$6,$7,0*
20,1,$1+$1,$6,$7,$8,$9,0*
20,1,$1+$1,$8,$9,$2,$3,0*%
G04 Aperture macros list end*
%ADD10R,0.900000X1.270000*%
%ADD11R,1.450000X0.800000*%
%ADD12RoundRect,0.250000X-0.650000X0.325000X-0.650000X-0.325000X0.650000X-0.325000X0.650000X0.325000X0*%
%ADD13RoundRect,0.250000X0.625000X-0.312500X0.625000X0.312500X-0.625000X0.312500X-0.625000X-0.312500X0*%
%ADD14RoundRect,0.250000X0.650000X-0.325000X0.650000X0.325000X-0.650000X0.325000X-0.650000X-0.325000X0*%
%ADD15RoundRect,0.150000X0.150000X-0.650000X0.150000X0.650000X-0.150000X0.650000X-0.150000X-0.650000X0*%
%ADD16R,7.498080X1.498600*%
%ADD17R,6.499860X0.998220*%
%ADD18RoundRect,0.250000X-0.625000X0.312500X-0.625000X-0.312500X0.625000X-0.312500X0.625000X0.312500X0*%
%ADD19RoundRect,0.150000X0.850000X0.150000X-0.850000X0.150000X-0.850000X-0.150000X0.850000X-0.150000X0*%
%ADD20RoundRect,0.250000X0.625000X-0.375000X0.625000X0.375000X-0.625000X0.375000X-0.625000X-0.375000X0*%
%ADD21RoundRect,0.150000X0.587500X0.150000X-0.587500X0.150000X-0.587500X-0.150000X0.587500X-0.150000X0*%
G04 APERTURE END LIST*
D10*
X157040000Y-82419000D03*
X152840000Y-82419000D03*
D11*
X158315000Y-80534000D03*
X151565000Y-80534000D03*
D12*
X135636000Y-81223000D03*
X135636000Y-84173000D03*
D13*
X150876000Y-87822500D03*
X150876000Y-84897500D03*
D14*
X130048000Y-94185000D03*
X130048000Y-91235000D03*
D15*
X128905000Y-88648000D03*
X130175000Y-88648000D03*
X131445000Y-88648000D03*
X132715000Y-88648000D03*
X132715000Y-81448000D03*
X131445000Y-81448000D03*
X130175000Y-81448000D03*
X128905000Y-81448000D03*
D13*
X135636000Y-101664500D03*
X135636000Y-98739500D03*
D16*
X121721880Y-88579180D03*
X121721880Y-81584020D03*
D17*
X122219720Y-86079820D03*
X122219720Y-84083380D03*
D12*
X138438000Y-81223000D03*
X138438000Y-84173000D03*
D18*
X150876000Y-95311500D03*
X150876000Y-98236500D03*
D10*
X152840000Y-100461000D03*
X157040000Y-100461000D03*
D11*
X151565000Y-102346000D03*
X158315000Y-102346000D03*
D19*
X147280000Y-90043000D03*
X147280000Y-88773000D03*
X147280000Y-87503000D03*
X147280000Y-86233000D03*
X147280000Y-84963000D03*
X147280000Y-83693000D03*
X147280000Y-82423000D03*
X147280000Y-81153000D03*
X142280000Y-81153000D03*
X142280000Y-82423000D03*
X142280000Y-83693000D03*
X142280000Y-84963000D03*
X142280000Y-86233000D03*
X142280000Y-87503000D03*
X142280000Y-88773000D03*
X142280000Y-90043000D03*
D13*
X132842000Y-98236500D03*
X132842000Y-95311500D03*
D19*
X147280000Y-101727000D03*
X147280000Y-100457000D03*
X147280000Y-99187000D03*
X147280000Y-97917000D03*
X147280000Y-96647000D03*
X147280000Y-95377000D03*
X147280000Y-94107000D03*
X147280000Y-92837000D03*
X142280000Y-92837000D03*
X142280000Y-94107000D03*
X142280000Y-95377000D03*
X142280000Y-96647000D03*
X142280000Y-97917000D03*
X142280000Y-99187000D03*
X142280000Y-100457000D03*
X142280000Y-101727000D03*
D20*
X138430000Y-101562000D03*
X138430000Y-98762000D03*
D21*
X138605500Y-95692000D03*
X138605500Y-93792000D03*
X136730500Y-94742000D03*
M02*
