G04 #@! TF.GenerationSoftware,KiCad,Pcbnew,6.0.8-f2edbf62ab~116~ubuntu22.04.1*
G04 #@! TF.CreationDate,2022-11-21T22:24:26-03:00*
G04 #@! TF.ProjectId,pip,7069702e-6b69-4636-9164-5f7063625858,rev?*
G04 #@! TF.SameCoordinates,Original*
G04 #@! TF.FileFunction,Legend,Top*
G04 #@! TF.FilePolarity,Positive*
%FSLAX46Y46*%
G04 Gerber Fmt 4.6, Leading zero omitted, Abs format (unit mm)*
G04 Created by KiCad (PCBNEW 6.0.8-f2edbf62ab~116~ubuntu22.04.1) date 2022-11-21 22:24:26*
%MOMM*%
%LPD*%
G01*
G04 APERTURE LIST*
G04 Aperture macros list*
%AMRoundRect*
0 Rectangle with rounded corners*
0 $1 Rounding radius*
0 $2 $3 $4 $5 $6 $7 $8 $9 X,Y pos of 4 corners*
0 Add a 4 corners polygon primitive as box body*
4,1,4,$2,$3,$4,$5,$6,$7,$8,$9,$2,$3,0*
0 Add four circle primitives for the rounded corners*
1,1,$1+$1,$2,$3*
1,1,$1+$1,$4,$5*
1,1,$1+$1,$6,$7*
1,1,$1+$1,$8,$9*
0 Add four rect primitives between the rounded corners*
20,1,$1+$1,$2,$3,$4,$5,0*
20,1,$1+$1,$4,$5,$6,$7,0*
20,1,$1+$1,$6,$7,$8,$9,0*
20,1,$1+$1,$8,$9,$2,$3,0*%
G04 Aperture macros list end*
%ADD10C,0.150000*%
%ADD11C,0.127000*%
%ADD12C,0.200000*%
%ADD13C,0.120000*%
%ADD14C,0.800000*%
%ADD15R,0.900000X1.270000*%
%ADD16R,1.450000X0.800000*%
%ADD17R,1.700000X1.700000*%
%ADD18O,1.700000X1.700000*%
%ADD19RoundRect,0.250000X-0.650000X0.325000X-0.650000X-0.325000X0.650000X-0.325000X0.650000X0.325000X0*%
%ADD20RoundRect,0.250000X0.625000X-0.312500X0.625000X0.312500X-0.625000X0.312500X-0.625000X-0.312500X0*%
%ADD21RoundRect,0.250000X0.650000X-0.325000X0.650000X0.325000X-0.650000X0.325000X-0.650000X-0.325000X0*%
%ADD22RoundRect,0.150000X0.150000X-0.650000X0.150000X0.650000X-0.150000X0.650000X-0.150000X-0.650000X0*%
%ADD23R,7.498080X1.498600*%
%ADD24R,6.499860X0.998220*%
%ADD25RoundRect,0.250000X-0.625000X0.312500X-0.625000X-0.312500X0.625000X-0.312500X0.625000X0.312500X0*%
%ADD26RoundRect,0.150000X0.850000X0.150000X-0.850000X0.150000X-0.850000X-0.150000X0.850000X-0.150000X0*%
%ADD27RoundRect,0.250000X0.625000X-0.375000X0.625000X0.375000X-0.625000X0.375000X-0.625000X-0.375000X0*%
%ADD28RoundRect,0.150000X0.587500X0.150000X-0.587500X0.150000X-0.587500X-0.150000X0.587500X-0.150000X0*%
G04 APERTURE END LIST*
D10*
X135469333Y-86103142D02*
X135421714Y-86150761D01*
X135278857Y-86198380D01*
X135183619Y-86198380D01*
X135040761Y-86150761D01*
X134945523Y-86055523D01*
X134897904Y-85960285D01*
X134850285Y-85769809D01*
X134850285Y-85626952D01*
X134897904Y-85436476D01*
X134945523Y-85341238D01*
X135040761Y-85246000D01*
X135183619Y-85198380D01*
X135278857Y-85198380D01*
X135421714Y-85246000D01*
X135469333Y-85293619D01*
X135850285Y-85293619D02*
X135897904Y-85246000D01*
X135993142Y-85198380D01*
X136231238Y-85198380D01*
X136326476Y-85246000D01*
X136374095Y-85293619D01*
X136421714Y-85388857D01*
X136421714Y-85484095D01*
X136374095Y-85626952D01*
X135802666Y-86198380D01*
X136421714Y-86198380D01*
X149915619Y-89527142D02*
X150391809Y-89193809D01*
X149915619Y-88955714D02*
X150915619Y-88955714D01*
X150915619Y-89336666D01*
X150868000Y-89431904D01*
X150820380Y-89479523D01*
X150725142Y-89527142D01*
X150582285Y-89527142D01*
X150487047Y-89479523D01*
X150439428Y-89431904D01*
X150391809Y-89336666D01*
X150391809Y-88955714D01*
X149915619Y-90479523D02*
X149915619Y-89908095D01*
X149915619Y-90193809D02*
X150915619Y-90193809D01*
X150772761Y-90098571D01*
X150677523Y-90003333D01*
X150629904Y-89908095D01*
X150915619Y-90812857D02*
X150915619Y-91431904D01*
X150534666Y-91098571D01*
X150534666Y-91241428D01*
X150487047Y-91336666D01*
X150439428Y-91384285D01*
X150344190Y-91431904D01*
X150106095Y-91431904D01*
X150010857Y-91384285D01*
X149963238Y-91336666D01*
X149915619Y-91241428D01*
X149915619Y-90955714D01*
X149963238Y-90860476D01*
X150010857Y-90812857D01*
X127595333Y-91543142D02*
X127547714Y-91590761D01*
X127404857Y-91638380D01*
X127309619Y-91638380D01*
X127166761Y-91590761D01*
X127071523Y-91495523D01*
X127023904Y-91400285D01*
X126976285Y-91209809D01*
X126976285Y-91066952D01*
X127023904Y-90876476D01*
X127071523Y-90781238D01*
X127166761Y-90686000D01*
X127309619Y-90638380D01*
X127404857Y-90638380D01*
X127547714Y-90686000D01*
X127595333Y-90733619D01*
X128452476Y-90638380D02*
X128262000Y-90638380D01*
X128166761Y-90686000D01*
X128119142Y-90733619D01*
X128023904Y-90876476D01*
X127976285Y-91066952D01*
X127976285Y-91447904D01*
X128023904Y-91543142D01*
X128071523Y-91590761D01*
X128166761Y-91638380D01*
X128357238Y-91638380D01*
X128452476Y-91590761D01*
X128500095Y-91543142D01*
X128547714Y-91447904D01*
X128547714Y-91209809D01*
X128500095Y-91114571D01*
X128452476Y-91066952D01*
X128357238Y-91019333D01*
X128166761Y-91019333D01*
X128071523Y-91066952D01*
X128023904Y-91114571D01*
X127976285Y-91209809D01*
X132080095Y-89876380D02*
X132080095Y-90685904D01*
X132127714Y-90781142D01*
X132175333Y-90828761D01*
X132270571Y-90876380D01*
X132461047Y-90876380D01*
X132556285Y-90828761D01*
X132603904Y-90781142D01*
X132651523Y-90685904D01*
X132651523Y-89876380D01*
X133080095Y-89971619D02*
X133127714Y-89924000D01*
X133222952Y-89876380D01*
X133461047Y-89876380D01*
X133556285Y-89924000D01*
X133603904Y-89971619D01*
X133651523Y-90066857D01*
X133651523Y-90162095D01*
X133603904Y-90304952D01*
X133032476Y-90876380D01*
X133651523Y-90876380D01*
X135469333Y-97606380D02*
X135136000Y-97130190D01*
X134897904Y-97606380D02*
X134897904Y-96606380D01*
X135278857Y-96606380D01*
X135374095Y-96654000D01*
X135421714Y-96701619D01*
X135469333Y-96796857D01*
X135469333Y-96939714D01*
X135421714Y-97034952D01*
X135374095Y-97082571D01*
X135278857Y-97130190D01*
X134897904Y-97130190D01*
X136040761Y-97034952D02*
X135945523Y-96987333D01*
X135897904Y-96939714D01*
X135850285Y-96844476D01*
X135850285Y-96796857D01*
X135897904Y-96701619D01*
X135945523Y-96654000D01*
X136040761Y-96606380D01*
X136231238Y-96606380D01*
X136326476Y-96654000D01*
X136374095Y-96701619D01*
X136421714Y-96796857D01*
X136421714Y-96844476D01*
X136374095Y-96939714D01*
X136326476Y-96987333D01*
X136231238Y-97034952D01*
X136040761Y-97034952D01*
X135945523Y-97082571D01*
X135897904Y-97130190D01*
X135850285Y-97225428D01*
X135850285Y-97415904D01*
X135897904Y-97511142D01*
X135945523Y-97558761D01*
X136040761Y-97606380D01*
X136231238Y-97606380D01*
X136326476Y-97558761D01*
X136374095Y-97511142D01*
X136421714Y-97415904D01*
X136421714Y-97225428D01*
X136374095Y-97130190D01*
X136326476Y-97082571D01*
X136231238Y-97034952D01*
X138271333Y-86103142D02*
X138223714Y-86150761D01*
X138080857Y-86198380D01*
X137985619Y-86198380D01*
X137842761Y-86150761D01*
X137747523Y-86055523D01*
X137699904Y-85960285D01*
X137652285Y-85769809D01*
X137652285Y-85626952D01*
X137699904Y-85436476D01*
X137747523Y-85341238D01*
X137842761Y-85246000D01*
X137985619Y-85198380D01*
X138080857Y-85198380D01*
X138223714Y-85246000D01*
X138271333Y-85293619D01*
X139223714Y-86198380D02*
X138652285Y-86198380D01*
X138938000Y-86198380D02*
X138938000Y-85198380D01*
X138842761Y-85341238D01*
X138747523Y-85436476D01*
X138652285Y-85484095D01*
X151185619Y-92321142D02*
X151661809Y-91987809D01*
X151185619Y-91749714D02*
X152185619Y-91749714D01*
X152185619Y-92130666D01*
X152138000Y-92225904D01*
X152090380Y-92273523D01*
X151995142Y-92321142D01*
X151852285Y-92321142D01*
X151757047Y-92273523D01*
X151709428Y-92225904D01*
X151661809Y-92130666D01*
X151661809Y-91749714D01*
X151185619Y-93273523D02*
X151185619Y-92702095D01*
X151185619Y-92987809D02*
X152185619Y-92987809D01*
X152042761Y-92892571D01*
X151947523Y-92797333D01*
X151899904Y-92702095D01*
X152090380Y-93654476D02*
X152138000Y-93702095D01*
X152185619Y-93797333D01*
X152185619Y-94035428D01*
X152138000Y-94130666D01*
X152090380Y-94178285D01*
X151995142Y-94225904D01*
X151899904Y-94225904D01*
X151757047Y-94178285D01*
X151185619Y-93606857D01*
X151185619Y-94225904D01*
X139192095Y-87082380D02*
X139192095Y-87891904D01*
X139239714Y-87987142D01*
X139287333Y-88034761D01*
X139382571Y-88082380D01*
X139573047Y-88082380D01*
X139668285Y-88034761D01*
X139715904Y-87987142D01*
X139763523Y-87891904D01*
X139763523Y-87082380D01*
X140144476Y-87082380D02*
X140763523Y-87082380D01*
X140430190Y-87463333D01*
X140573047Y-87463333D01*
X140668285Y-87510952D01*
X140715904Y-87558571D01*
X140763523Y-87653809D01*
X140763523Y-87891904D01*
X140715904Y-87987142D01*
X140668285Y-88034761D01*
X140573047Y-88082380D01*
X140287333Y-88082380D01*
X140192095Y-88034761D01*
X140144476Y-87987142D01*
X130611619Y-95877142D02*
X131087809Y-95543809D01*
X130611619Y-95305714D02*
X131611619Y-95305714D01*
X131611619Y-95686666D01*
X131564000Y-95781904D01*
X131516380Y-95829523D01*
X131421142Y-95877142D01*
X131278285Y-95877142D01*
X131183047Y-95829523D01*
X131135428Y-95781904D01*
X131087809Y-95686666D01*
X131087809Y-95305714D01*
X130611619Y-96829523D02*
X130611619Y-96258095D01*
X130611619Y-96543809D02*
X131611619Y-96543809D01*
X131468761Y-96448571D01*
X131373523Y-96353333D01*
X131325904Y-96258095D01*
X130611619Y-97781904D02*
X130611619Y-97210476D01*
X130611619Y-97496190D02*
X131611619Y-97496190D01*
X131468761Y-97400952D01*
X131373523Y-97305714D01*
X131325904Y-97210476D01*
X148844095Y-92162380D02*
X148844095Y-92971904D01*
X148891714Y-93067142D01*
X148939333Y-93114761D01*
X149034571Y-93162380D01*
X149225047Y-93162380D01*
X149320285Y-93114761D01*
X149367904Y-93067142D01*
X149415523Y-92971904D01*
X149415523Y-92162380D01*
X150415523Y-93162380D02*
X149844095Y-93162380D01*
X150129809Y-93162380D02*
X150129809Y-92162380D01*
X150034571Y-92305238D01*
X149939333Y-92400476D01*
X149844095Y-92448095D01*
X137691904Y-97566380D02*
X137691904Y-96566380D01*
X137930000Y-96566380D01*
X138072857Y-96614000D01*
X138168095Y-96709238D01*
X138215714Y-96804476D01*
X138263333Y-96994952D01*
X138263333Y-97137809D01*
X138215714Y-97328285D01*
X138168095Y-97423523D01*
X138072857Y-97518761D01*
X137930000Y-97566380D01*
X137691904Y-97566380D01*
X139215714Y-97566380D02*
X138644285Y-97566380D01*
X138930000Y-97566380D02*
X138930000Y-96566380D01*
X138834761Y-96709238D01*
X138739523Y-96804476D01*
X138644285Y-96852095D01*
X134524761Y-94019619D02*
X134429523Y-93972000D01*
X134334285Y-93876761D01*
X134191428Y-93733904D01*
X134096190Y-93686285D01*
X134000952Y-93686285D01*
X134048571Y-93924380D02*
X133953333Y-93876761D01*
X133858095Y-93781523D01*
X133810476Y-93591047D01*
X133810476Y-93257714D01*
X133858095Y-93067238D01*
X133953333Y-92972000D01*
X134048571Y-92924380D01*
X134239047Y-92924380D01*
X134334285Y-92972000D01*
X134429523Y-93067238D01*
X134477142Y-93257714D01*
X134477142Y-93591047D01*
X134429523Y-93781523D01*
X134334285Y-93876761D01*
X134239047Y-93924380D01*
X134048571Y-93924380D01*
X135429523Y-93924380D02*
X134858095Y-93924380D01*
X135143809Y-93924380D02*
X135143809Y-92924380D01*
X135048571Y-93067238D01*
X134953333Y-93162476D01*
X134858095Y-93210095D01*
D11*
X151490000Y-82784000D02*
X151490000Y-81247500D01*
X157276500Y-80284000D02*
X156440000Y-80284000D01*
X156440000Y-80284000D02*
X153440000Y-80284000D01*
X153440000Y-80284000D02*
X152603500Y-80284000D01*
X152076500Y-82784000D02*
X151490000Y-82784000D01*
X156440000Y-80284000D02*
X156440000Y-79284000D01*
X158390000Y-82784000D02*
X158390000Y-81247500D01*
X156440000Y-79284000D02*
X153440000Y-79284000D01*
X156276500Y-82784000D02*
X153603500Y-82784000D01*
X157803500Y-82784000D02*
X158390000Y-82784000D01*
X153440000Y-79284000D02*
X153440000Y-80284000D01*
D12*
X157140000Y-83534000D02*
G75*
G03*
X157140000Y-83534000I-100000J0D01*
G01*
D13*
X152626000Y-87757000D02*
X152626000Y-97977000D01*
X157826000Y-85157000D02*
X155226000Y-85157000D01*
X155226000Y-87757000D02*
X152626000Y-87757000D01*
X156496000Y-85157000D02*
X157826000Y-85157000D01*
X157826000Y-85157000D02*
X157826000Y-97977000D01*
X157826000Y-85157000D02*
X157826000Y-86487000D01*
X155226000Y-85157000D02*
X155226000Y-87757000D01*
X157826000Y-97977000D02*
X152626000Y-97977000D01*
X136546000Y-81986748D02*
X136546000Y-83409252D01*
X134726000Y-81986748D02*
X134726000Y-83409252D01*
X151786000Y-87087064D02*
X151786000Y-85632936D01*
X149966000Y-87087064D02*
X149966000Y-85632936D01*
X130958000Y-93421252D02*
X130958000Y-91998748D01*
X129138000Y-93421252D02*
X129138000Y-91998748D01*
X128345000Y-87773000D02*
X128345000Y-89448000D01*
X133535000Y-87773000D02*
X133275000Y-87773000D01*
X128085000Y-85048000D02*
X128085000Y-87773000D01*
X133535000Y-85048000D02*
X133535000Y-87773000D01*
X128085000Y-85048000D02*
X128085000Y-82323000D01*
X133535000Y-82323000D02*
X133275000Y-82323000D01*
X128085000Y-87773000D02*
X128345000Y-87773000D01*
X128085000Y-82323000D02*
X128345000Y-82323000D01*
X133535000Y-85048000D02*
X133535000Y-82323000D01*
X136546000Y-100929064D02*
X136546000Y-99474936D01*
X134726000Y-100929064D02*
X134726000Y-99474936D01*
G36*
X140280219Y-100514467D02*
G01*
X140311334Y-100585587D01*
X140280219Y-100655596D01*
X140212988Y-100681711D01*
X140146869Y-100654485D01*
X140116865Y-100586143D01*
X140146313Y-100516134D01*
X140212433Y-100487242D01*
X140280219Y-100514467D01*
G37*
G36*
X139681693Y-98957224D02*
G01*
X139690755Y-98896132D01*
X139705761Y-98836223D01*
X139726568Y-98778073D01*
X139752974Y-98722242D01*
X139784725Y-98669269D01*
X139821515Y-98619662D01*
X139862991Y-98573901D01*
X139908752Y-98532425D01*
X139958359Y-98495635D01*
X140011332Y-98463884D01*
X140067163Y-98437478D01*
X140125313Y-98416671D01*
X140185222Y-98401665D01*
X140246314Y-98392603D01*
X140308000Y-98389572D01*
X140369686Y-98392603D01*
X140430778Y-98401665D01*
X140490687Y-98416671D01*
X140548837Y-98437478D01*
X140604668Y-98463884D01*
X140657641Y-98495635D01*
X140707248Y-98532425D01*
X140753009Y-98573901D01*
X140794485Y-98619662D01*
X140831275Y-98669269D01*
X140863026Y-98722242D01*
X140889432Y-98778073D01*
X140910239Y-98836223D01*
X140925245Y-98896132D01*
X140934307Y-98957224D01*
X140937338Y-99018910D01*
X140937338Y-101641090D01*
X140934307Y-101702776D01*
X140925245Y-101763868D01*
X140910239Y-101823777D01*
X140889432Y-101881927D01*
X140863026Y-101937758D01*
X140831275Y-101990731D01*
X140794485Y-102040338D01*
X140753009Y-102086099D01*
X140707248Y-102127575D01*
X140657641Y-102164365D01*
X140604668Y-102196116D01*
X140548837Y-102222522D01*
X140490687Y-102243329D01*
X140430778Y-102258335D01*
X140369686Y-102267397D01*
X140308000Y-102270428D01*
X140246314Y-102267397D01*
X140185222Y-102258335D01*
X140125313Y-102243329D01*
X140067163Y-102222522D01*
X140011332Y-102196116D01*
X139958359Y-102164365D01*
X139908752Y-102127575D01*
X139862991Y-102086099D01*
X139821515Y-102040338D01*
X139784725Y-101990731D01*
X139752974Y-101937758D01*
X139726568Y-101881927D01*
X139705761Y-101823777D01*
X139690755Y-101763868D01*
X139681693Y-101702776D01*
X139678662Y-101641090D01*
X139678662Y-101281786D01*
X139920174Y-101281786D01*
X139921841Y-101319013D01*
X139931286Y-101348461D01*
X139960457Y-101371797D01*
X140016853Y-101379576D01*
X140091306Y-101354017D01*
X140101863Y-101324569D01*
X140103530Y-101284564D01*
X140116865Y-101249004D01*
X140160204Y-101239558D01*
X140313556Y-101239558D01*
X140309111Y-101311789D01*
X140310778Y-101350128D01*
X140320224Y-101379576D01*
X140349394Y-101402078D01*
X140405790Y-101409579D01*
X140462742Y-101402356D01*
X140491356Y-101380687D01*
X140501913Y-101351239D01*
X140503580Y-101313456D01*
X140499135Y-101239558D01*
X140608038Y-101239558D01*
X140664711Y-101234002D01*
X140695548Y-101204276D01*
X140705828Y-101143991D01*
X140698882Y-101087039D01*
X140678046Y-101058424D01*
X140651376Y-101047868D01*
X140613594Y-101046201D01*
X140499135Y-101046201D01*
X140503580Y-101009529D01*
X140489134Y-100965079D01*
X140459686Y-100949522D01*
X140393566Y-100943966D01*
X140329114Y-100960079D01*
X140310223Y-101000639D01*
X140313556Y-101046201D01*
X140149091Y-101046201D01*
X140074144Y-101052868D01*
X140015247Y-101072871D01*
X139972402Y-101106208D01*
X139943387Y-101152387D01*
X139925977Y-101210913D01*
X139920174Y-101281786D01*
X139678662Y-101281786D01*
X139678662Y-100795614D01*
X139922396Y-100795614D01*
X139929619Y-100844925D01*
X139951289Y-100871734D01*
X139980737Y-100881180D01*
X140019075Y-100882847D01*
X140408013Y-100882847D01*
X140446351Y-100881180D01*
X140475799Y-100871179D01*
X140499135Y-100841731D01*
X140505803Y-100777278D01*
X140490245Y-100714770D01*
X140443573Y-100689489D01*
X140466353Y-100669487D01*
X140491356Y-100626148D01*
X140504691Y-100557251D01*
X140494999Y-100493107D01*
X140465921Y-100432544D01*
X140417458Y-100375561D01*
X140356092Y-100329568D01*
X140288306Y-100301972D01*
X140214099Y-100292773D01*
X140139831Y-100301910D01*
X140071859Y-100329321D01*
X140010185Y-100375006D01*
X139961413Y-100431371D01*
X139932151Y-100490823D01*
X139922396Y-100553361D01*
X139937120Y-100635733D01*
X139981292Y-100690601D01*
X139937398Y-100714492D01*
X139922396Y-100795614D01*
X139678662Y-100795614D01*
X139678662Y-100120529D01*
X139920174Y-100120529D01*
X139921841Y-100157756D01*
X139931286Y-100187204D01*
X139960457Y-100210541D01*
X140016853Y-100218319D01*
X140091306Y-100192761D01*
X140101863Y-100163313D01*
X140103530Y-100123308D01*
X140116865Y-100087748D01*
X140160204Y-100078302D01*
X140313556Y-100078302D01*
X140309111Y-100150533D01*
X140310778Y-100188871D01*
X140320224Y-100218319D01*
X140349394Y-100240822D01*
X140405790Y-100248323D01*
X140462742Y-100241100D01*
X140491356Y-100219431D01*
X140501913Y-100189983D01*
X140503580Y-100152200D01*
X140499135Y-100078302D01*
X140608038Y-100078302D01*
X140664711Y-100072746D01*
X140695548Y-100043020D01*
X140705828Y-99982734D01*
X140698882Y-99925783D01*
X140678046Y-99897168D01*
X140651376Y-99886611D01*
X140613594Y-99884944D01*
X140499135Y-99884944D01*
X140503580Y-99848273D01*
X140489134Y-99803823D01*
X140459686Y-99788266D01*
X140393566Y-99782709D01*
X140329114Y-99798822D01*
X140310223Y-99839383D01*
X140313556Y-99884944D01*
X140149091Y-99884944D01*
X140074144Y-99891612D01*
X140015247Y-99911614D01*
X139972402Y-99944952D01*
X139943387Y-99991130D01*
X139925977Y-100049656D01*
X139920174Y-100120529D01*
X139678662Y-100120529D01*
X139678662Y-99477671D01*
X139910172Y-99477671D01*
X139914000Y-99545149D01*
X139925483Y-99604601D01*
X139944621Y-99656027D01*
X140005184Y-99716590D01*
X140050051Y-99732842D01*
X140103530Y-99738259D01*
X140156453Y-99732842D01*
X140199653Y-99716590D01*
X140253549Y-99662694D01*
X140281330Y-99592686D01*
X140295776Y-99520454D01*
X140311612Y-99463781D01*
X140339115Y-99444889D01*
X140363563Y-99510453D01*
X140346894Y-99588796D01*
X140330225Y-99638247D01*
X140369119Y-99688253D01*
X140434683Y-99712701D01*
X140479133Y-99673807D01*
X140507469Y-99591574D01*
X140516915Y-99511564D01*
X140509892Y-99424754D01*
X140488823Y-99357234D01*
X140453707Y-99309006D01*
X140404545Y-99280069D01*
X140341338Y-99270423D01*
X140286470Y-99275702D01*
X140239658Y-99291537D01*
X140176873Y-99344877D01*
X140142702Y-99414052D01*
X140124644Y-99483783D01*
X140111864Y-99539623D01*
X140093529Y-99558237D01*
X140073526Y-99541290D01*
X140066859Y-99490451D01*
X140094084Y-99405996D01*
X140121310Y-99332097D01*
X140102419Y-99292648D01*
X140051023Y-99260977D01*
X140014630Y-99250421D01*
X139972402Y-99271534D01*
X139937830Y-99338395D01*
X139917087Y-99407107D01*
X139910172Y-99477671D01*
X139678662Y-99477671D01*
X139678662Y-99018910D01*
X139681693Y-98957224D01*
G37*
G36*
X149224292Y-80917060D02*
G01*
X149233491Y-80855051D01*
X149248722Y-80794242D01*
X149269841Y-80735220D01*
X149296643Y-80678551D01*
X149328871Y-80624782D01*
X149366214Y-80574431D01*
X149408312Y-80527983D01*
X149454760Y-80485885D01*
X149505111Y-80448542D01*
X149558880Y-80416315D01*
X149615548Y-80389512D01*
X149674571Y-80368394D01*
X149735380Y-80353162D01*
X149797388Y-80343964D01*
X149860000Y-80340888D01*
X149922612Y-80343964D01*
X149984620Y-80353162D01*
X150045429Y-80368394D01*
X150104452Y-80389512D01*
X150161120Y-80416315D01*
X150214889Y-80448542D01*
X150265240Y-80485885D01*
X150311688Y-80527983D01*
X150353786Y-80574431D01*
X150391129Y-80624782D01*
X150423357Y-80678551D01*
X150450159Y-80735220D01*
X150471278Y-80794242D01*
X150486509Y-80855051D01*
X150495708Y-80917060D01*
X150498784Y-80979671D01*
X150498784Y-82088329D01*
X150495708Y-82150940D01*
X150486509Y-82212949D01*
X150471278Y-82273758D01*
X150450159Y-82332780D01*
X150423357Y-82389449D01*
X150391129Y-82443218D01*
X150353786Y-82493569D01*
X150311688Y-82540017D01*
X150265240Y-82582115D01*
X150214889Y-82619458D01*
X150161120Y-82651685D01*
X150104452Y-82678488D01*
X150045429Y-82699606D01*
X149984620Y-82714838D01*
X149922612Y-82724036D01*
X149860000Y-82727112D01*
X149797388Y-82724036D01*
X149735380Y-82714838D01*
X149674571Y-82699606D01*
X149615548Y-82678488D01*
X149558880Y-82651685D01*
X149505111Y-82619458D01*
X149454760Y-82582115D01*
X149408312Y-82540017D01*
X149366214Y-82493569D01*
X149328871Y-82443218D01*
X149296643Y-82389449D01*
X149269841Y-82332780D01*
X149248722Y-82273758D01*
X149233491Y-82212949D01*
X149224292Y-82150940D01*
X149221216Y-82088329D01*
X149221216Y-81601231D01*
X149452727Y-81601231D01*
X149461061Y-81668091D01*
X149486064Y-81727913D01*
X149527736Y-81780697D01*
X149581755Y-81821999D01*
X149643800Y-81847372D01*
X149713871Y-81856818D01*
X149776224Y-81849533D01*
X149834380Y-81827679D01*
X149888337Y-81791254D01*
X149952512Y-81822925D01*
X150022798Y-81833482D01*
X150087004Y-81825456D01*
X150144789Y-81801379D01*
X150196153Y-81761251D01*
X150235664Y-81711615D01*
X150259371Y-81654571D01*
X150267273Y-81590118D01*
X150267273Y-81310083D01*
X150259772Y-81252854D01*
X150237269Y-81223406D01*
X150208377Y-81212849D01*
X150169483Y-81211182D01*
X149552739Y-81211182D01*
X149494954Y-81217849D01*
X149463284Y-81247297D01*
X149452727Y-81308972D01*
X149452727Y-81601231D01*
X149221216Y-81601231D01*
X149221216Y-80979671D01*
X149224292Y-80917060D01*
G37*
G36*
X150070582Y-81563448D02*
G01*
X150059469Y-81618455D01*
X150020576Y-81636791D01*
X149980571Y-81633457D01*
X149957234Y-81580117D01*
X149941677Y-81511775D01*
X149877780Y-81491217D01*
X149813883Y-81511219D01*
X149798326Y-81571227D01*
X149789436Y-81633457D01*
X149767211Y-81654015D01*
X149724983Y-81660127D01*
X149668309Y-81642625D01*
X149649418Y-81590118D01*
X149649418Y-81407873D01*
X150070582Y-81407873D01*
X150070582Y-81563448D01*
G37*
X137528000Y-81986748D02*
X137528000Y-83409252D01*
X139348000Y-81986748D02*
X139348000Y-83409252D01*
X151786000Y-96046936D02*
X151786000Y-97501064D01*
X149966000Y-96046936D02*
X149966000Y-97501064D01*
D11*
X157803500Y-100096000D02*
X158390000Y-100096000D01*
X151490000Y-100096000D02*
X151490000Y-101632500D01*
X156440000Y-102596000D02*
X157276500Y-102596000D01*
X153440000Y-103596000D02*
X156440000Y-103596000D01*
X152076500Y-100096000D02*
X151490000Y-100096000D01*
X152603500Y-102596000D02*
X153440000Y-102596000D01*
X153440000Y-102596000D02*
X156440000Y-102596000D01*
X158390000Y-100096000D02*
X158390000Y-101632500D01*
X156440000Y-103596000D02*
X156440000Y-102596000D01*
X153440000Y-102596000D02*
X153440000Y-103596000D01*
X153603500Y-100096000D02*
X156276500Y-100096000D01*
D12*
X152940000Y-99346000D02*
G75*
G03*
X152940000Y-99346000I-100000J0D01*
G01*
D13*
X144780000Y-80538000D02*
X142830000Y-80538000D01*
X144780000Y-90658000D02*
X148280000Y-90658000D01*
X144780000Y-80538000D02*
X146730000Y-80538000D01*
X144780000Y-90658000D02*
X142830000Y-90658000D01*
G36*
X135920557Y-89802500D02*
G01*
X135963655Y-89835233D01*
X135990055Y-89880751D01*
X135996706Y-89931660D01*
X135980557Y-89980565D01*
X135954369Y-90009397D01*
X135898458Y-90037637D01*
X135841530Y-90039914D01*
X135792048Y-90016648D01*
X135776434Y-90000538D01*
X135749653Y-89946208D01*
X135747706Y-89890507D01*
X135767490Y-89840917D01*
X135805898Y-89804922D01*
X135859826Y-89790007D01*
X135863813Y-89789946D01*
X135920557Y-89802500D01*
G37*
G36*
X134326392Y-90500681D02*
G01*
X134332980Y-90382126D01*
X134360981Y-90270936D01*
X134404301Y-90184087D01*
X134428179Y-90154748D01*
X134471702Y-90107944D01*
X134531171Y-90047384D01*
X134602889Y-89976773D01*
X134683158Y-89899822D01*
X134754001Y-89833444D01*
X134836620Y-89756815D01*
X134912415Y-89686442D01*
X134978071Y-89625410D01*
X135030270Y-89576804D01*
X135065696Y-89543710D01*
X135080581Y-89529656D01*
X135084120Y-89521012D01*
X135079747Y-89506882D01*
X135065467Y-89485016D01*
X135039287Y-89453165D01*
X134999213Y-89409078D01*
X134943250Y-89350506D01*
X134869405Y-89275199D01*
X134856377Y-89262092D01*
X136374050Y-89262092D01*
X136378620Y-89326219D01*
X136395931Y-89366451D01*
X136431389Y-89387884D01*
X136490394Y-89395613D01*
X136516093Y-89396025D01*
X136571417Y-89394059D01*
X136605005Y-89386238D01*
X136626499Y-89369679D01*
X136633144Y-89361005D01*
X136652531Y-89310917D01*
X136655967Y-89248403D01*
X136643081Y-89188434D01*
X136637745Y-89176528D01*
X136603118Y-89140857D01*
X136548382Y-89121328D01*
X136481957Y-89120688D01*
X136471757Y-89122344D01*
X136420335Y-89138474D01*
X136389992Y-89167682D01*
X136376231Y-89216398D01*
X136374050Y-89262092D01*
X134856377Y-89262092D01*
X134775685Y-89180908D01*
X134738506Y-89143693D01*
X134625548Y-89030263D01*
X134533114Y-88935750D01*
X134459154Y-88857081D01*
X134401616Y-88791184D01*
X134358450Y-88734988D01*
X134327605Y-88685420D01*
X134307028Y-88639410D01*
X134294671Y-88593884D01*
X134288481Y-88545773D01*
X134286408Y-88492003D01*
X134286271Y-88466372D01*
X134287811Y-88393952D01*
X134294097Y-88340588D01*
X134307632Y-88293903D01*
X134330915Y-88241519D01*
X134332268Y-88238757D01*
X134405537Y-88124178D01*
X134501732Y-88030925D01*
X134602266Y-87968759D01*
X134655212Y-87944965D01*
X134701887Y-87931035D01*
X134754670Y-87924468D01*
X134825937Y-87922764D01*
X134829881Y-87922762D01*
X134887324Y-87923688D01*
X134937929Y-87927797D01*
X134984693Y-87937088D01*
X135030609Y-87953559D01*
X135078672Y-87979208D01*
X135131878Y-88016033D01*
X135193219Y-88066031D01*
X135265691Y-88131202D01*
X135352288Y-88213543D01*
X135456005Y-88315051D01*
X135535027Y-88393255D01*
X135917157Y-88772259D01*
X135984096Y-88708707D01*
X136122926Y-88577225D01*
X136241544Y-88465989D01*
X136342368Y-88373312D01*
X136427816Y-88297508D01*
X136500305Y-88236890D01*
X136562255Y-88189773D01*
X136616083Y-88154469D01*
X136664206Y-88129293D01*
X136709043Y-88112558D01*
X136753012Y-88102578D01*
X136798530Y-88097667D01*
X136848016Y-88096139D01*
X136862512Y-88096087D01*
X136934932Y-88097627D01*
X136988296Y-88103913D01*
X137034981Y-88117448D01*
X137087364Y-88140731D01*
X137090127Y-88142084D01*
X137204706Y-88215353D01*
X137297959Y-88311549D01*
X137360125Y-88412082D01*
X137406122Y-88505764D01*
X137414000Y-88883928D01*
X137416956Y-89001986D01*
X137420343Y-89095173D01*
X137424069Y-89161996D01*
X137428041Y-89200964D01*
X137432165Y-89210585D01*
X137434057Y-89204889D01*
X137460580Y-89132249D01*
X137507213Y-89053405D01*
X137566887Y-88978109D01*
X137632534Y-88916108D01*
X137655550Y-88899396D01*
X137685555Y-88879373D01*
X137712608Y-88862046D01*
X137739115Y-88847227D01*
X137767479Y-88834725D01*
X137800105Y-88824352D01*
X137839395Y-88815919D01*
X137887755Y-88809235D01*
X137947589Y-88804113D01*
X138021301Y-88800362D01*
X138111294Y-88797795D01*
X138219974Y-88796220D01*
X138349743Y-88795450D01*
X138503007Y-88795295D01*
X138682169Y-88795566D01*
X138889633Y-88796074D01*
X138966048Y-88796264D01*
X139193530Y-88797063D01*
X139398557Y-88798284D01*
X139579921Y-88799906D01*
X139736416Y-88801910D01*
X139866834Y-88804275D01*
X139969967Y-88806981D01*
X140044609Y-88810009D01*
X140089551Y-88813338D01*
X140100539Y-88815117D01*
X140201133Y-88855497D01*
X140297327Y-88920547D01*
X140381415Y-89003597D01*
X140445690Y-89097978D01*
X140459027Y-89125391D01*
X140486343Y-89214723D01*
X140499141Y-89318938D01*
X140496648Y-89424561D01*
X140481015Y-89508579D01*
X140445611Y-89597722D01*
X140391335Y-89680262D01*
X140313676Y-89762362D01*
X140262845Y-89806687D01*
X140212753Y-89849347D01*
X140147709Y-89906404D01*
X140075766Y-89970716D01*
X140004976Y-90035141D01*
X139998120Y-90041454D01*
X139932292Y-90102043D01*
X139868964Y-90160160D01*
X139814581Y-90209903D01*
X139775586Y-90245370D01*
X139770095Y-90250325D01*
X139707517Y-90306676D01*
X140080572Y-90679481D01*
X140194692Y-90793960D01*
X140288281Y-90889457D01*
X140363369Y-90968992D01*
X140421987Y-91035585D01*
X140466164Y-91092257D01*
X140497931Y-91142028D01*
X140519317Y-91187917D01*
X140532352Y-91232947D01*
X140539066Y-91280137D01*
X140541490Y-91332507D01*
X140541730Y-91365628D01*
X140540190Y-91438048D01*
X140533904Y-91491412D01*
X140520369Y-91538098D01*
X140497085Y-91590481D01*
X140495732Y-91593244D01*
X140423946Y-91706792D01*
X140332684Y-91797509D01*
X140225050Y-91863297D01*
X140104150Y-91902060D01*
X140024477Y-91911572D01*
X139942081Y-91910857D01*
X139870262Y-91901734D01*
X139844548Y-91895050D01*
X139802940Y-91879398D01*
X139761048Y-91858584D01*
X139716097Y-91830300D01*
X139665310Y-91792237D01*
X139605912Y-91742087D01*
X139535125Y-91677542D01*
X139450173Y-91596294D01*
X139348281Y-91496034D01*
X139266567Y-91414483D01*
X138905300Y-91052515D01*
X138674555Y-91270041D01*
X138597951Y-91342484D01*
X138523647Y-91413165D01*
X138456804Y-91477143D01*
X138402583Y-91529479D01*
X138366147Y-91565231D01*
X138365956Y-91565421D01*
X138308410Y-91615208D01*
X138240747Y-91662821D01*
X138193762Y-91689594D01*
X138140577Y-91713534D01*
X138093890Y-91727555D01*
X138041295Y-91734175D01*
X137970385Y-91735910D01*
X137965489Y-91735913D01*
X137893069Y-91734374D01*
X137839705Y-91728087D01*
X137793020Y-91714553D01*
X137740636Y-91691269D01*
X137737874Y-91689916D01*
X137623295Y-91616647D01*
X137530042Y-91520452D01*
X137467876Y-91419918D01*
X137421879Y-91326236D01*
X137414000Y-90948072D01*
X137411045Y-90830014D01*
X137407658Y-90736827D01*
X137403932Y-90670004D01*
X137399960Y-90631036D01*
X137395836Y-90621415D01*
X137393944Y-90627111D01*
X137367421Y-90699752D01*
X137320788Y-90778595D01*
X137261114Y-90853891D01*
X137195467Y-90915892D01*
X137172451Y-90932605D01*
X137142415Y-90952648D01*
X137115337Y-90969990D01*
X137088809Y-90984819D01*
X137060425Y-90997325D01*
X137027778Y-91007696D01*
X136988461Y-91016122D01*
X136940068Y-91022792D01*
X136880192Y-91027895D01*
X136806427Y-91031620D01*
X136716365Y-91034156D01*
X136607600Y-91035692D01*
X136477725Y-91036417D01*
X136324333Y-91036521D01*
X136145018Y-91036192D01*
X135937373Y-91035620D01*
X135863900Y-91035414D01*
X135653393Y-91034799D01*
X135471978Y-91034144D01*
X135317233Y-91033382D01*
X135186737Y-91032442D01*
X135078069Y-91031255D01*
X134988806Y-91029750D01*
X134916526Y-91027858D01*
X134858810Y-91025509D01*
X134813233Y-91022633D01*
X134777376Y-91019161D01*
X134748817Y-91015022D01*
X134725133Y-91010148D01*
X134703904Y-91004467D01*
X134694828Y-91001729D01*
X134594692Y-90955981D01*
X134501443Y-90885746D01*
X134423084Y-90798028D01*
X134379064Y-90725315D01*
X134354464Y-90654784D01*
X135460154Y-90654784D01*
X135495174Y-90679313D01*
X135533887Y-90695396D01*
X135584399Y-90703579D01*
X135594087Y-90703841D01*
X135644615Y-90697794D01*
X135687213Y-90682888D01*
X135693001Y-90679313D01*
X135707558Y-90667236D01*
X135717407Y-90651252D01*
X135723464Y-90625557D01*
X135726640Y-90584345D01*
X135727852Y-90521811D01*
X135728020Y-90456905D01*
X135728020Y-90259026D01*
X135768119Y-90285299D01*
X135829552Y-90310856D01*
X135904526Y-90321566D01*
X135978154Y-90316185D01*
X136013030Y-90305770D01*
X136091376Y-90259620D01*
X136165867Y-90191535D01*
X136226720Y-90110530D01*
X136228902Y-90106860D01*
X136252284Y-90061820D01*
X136265326Y-90018717D01*
X136270806Y-89965141D01*
X136271403Y-89929589D01*
X136374050Y-89929589D01*
X136374226Y-90053954D01*
X136375521Y-90150364D01*
X136379089Y-90222379D01*
X136386081Y-90273555D01*
X136397650Y-90307454D01*
X136414949Y-90327632D01*
X136439129Y-90337650D01*
X136471343Y-90341065D01*
X136507414Y-90341434D01*
X136561545Y-90337128D01*
X136605588Y-90326113D01*
X136619208Y-90319094D01*
X136629137Y-90309939D01*
X136636757Y-90296142D01*
X136642447Y-90273641D01*
X136646589Y-90238373D01*
X136649561Y-90186276D01*
X136651745Y-90113285D01*
X136653519Y-90015341D01*
X136654571Y-89941051D01*
X136654802Y-89923879D01*
X136767971Y-89923879D01*
X136768054Y-90040857D01*
X136768541Y-90130339D01*
X136769792Y-90196342D01*
X136772162Y-90242885D01*
X136776012Y-90273984D01*
X136781698Y-90293657D01*
X136789578Y-90305921D01*
X136800011Y-90314795D01*
X136802990Y-90316906D01*
X136846594Y-90333943D01*
X136904722Y-90340592D01*
X136963355Y-90336708D01*
X137008479Y-90322144D01*
X137013129Y-90319092D01*
X137025460Y-90306975D01*
X137034403Y-90288002D01*
X137040784Y-90256901D01*
X137045429Y-90208403D01*
X137049162Y-90137238D01*
X137051593Y-90073420D01*
X137055006Y-89984914D01*
X137058608Y-89922392D01*
X137063381Y-89880334D01*
X137070308Y-89853221D01*
X137080368Y-89835534D01*
X137094546Y-89821752D01*
X137096670Y-89820018D01*
X137149412Y-89794948D01*
X137207295Y-89794069D01*
X137260332Y-89815276D01*
X137298537Y-89856461D01*
X137301965Y-89863330D01*
X137308953Y-89894310D01*
X137314563Y-89949467D01*
X137318245Y-90021476D01*
X137319459Y-90097052D01*
X137319802Y-90178940D01*
X137321451Y-90235169D01*
X137325339Y-90271591D01*
X137332397Y-90294057D01*
X137343559Y-90308421D01*
X137354479Y-90316906D01*
X137402876Y-90336460D01*
X137463155Y-90342004D01*
X137522427Y-90334047D01*
X137567805Y-90313096D01*
X137573214Y-90308275D01*
X137585917Y-90293767D01*
X137594703Y-90276354D01*
X137600115Y-90250676D01*
X137602695Y-90211373D01*
X137602987Y-90153085D01*
X137601535Y-90070452D01*
X137600754Y-90036470D01*
X137598357Y-89944452D01*
X137596563Y-89902828D01*
X137703490Y-89902828D01*
X137711094Y-90005384D01*
X137739467Y-90101441D01*
X137766733Y-90152465D01*
X137838382Y-90234954D01*
X137927128Y-90296646D01*
X138026938Y-90335821D01*
X138131780Y-90350758D01*
X138235624Y-90339738D01*
X138317161Y-90309426D01*
X138379233Y-90273856D01*
X138416559Y-90242031D01*
X138434403Y-90208085D01*
X138438194Y-90174668D01*
X138427872Y-90126175D01*
X138393864Y-90076369D01*
X138385124Y-90066812D01*
X138333850Y-90024710D01*
X138283982Y-90012080D01*
X138229543Y-90027757D01*
X138217598Y-90034176D01*
X138154362Y-90056039D01*
X138094140Y-90052284D01*
X138043482Y-90026187D01*
X138008935Y-89981023D01*
X137997003Y-89923842D01*
X138004464Y-89885513D01*
X138532707Y-89885513D01*
X138533048Y-90011688D01*
X138534395Y-90112180D01*
X138537383Y-90189907D01*
X138542651Y-90247784D01*
X138550834Y-90288726D01*
X138562570Y-90315649D01*
X138578494Y-90331468D01*
X138599244Y-90339100D01*
X138625457Y-90341459D01*
X138657769Y-90341461D01*
X138666098Y-90341434D01*
X138720236Y-90337127D01*
X138764279Y-90326110D01*
X138777893Y-90319092D01*
X138790227Y-90306971D01*
X138799172Y-90287990D01*
X138805554Y-90256877D01*
X138810199Y-90208361D01*
X138813933Y-90137169D01*
X138816358Y-90073546D01*
X138819909Y-89984288D01*
X138823777Y-89921228D01*
X138828814Y-89879057D01*
X138835867Y-89852463D01*
X138845786Y-89836136D01*
X138855750Y-89827338D01*
X138914121Y-89799767D01*
X138973724Y-89796439D01*
X139026313Y-89815972D01*
X139063643Y-89856985D01*
X139066423Y-89862658D01*
X139073736Y-89894528D01*
X139079508Y-89950636D01*
X139083178Y-90023720D01*
X139084224Y-90092765D01*
X139085331Y-90186465D01*
X139090272Y-90253211D01*
X139101475Y-90297530D01*
X139121369Y-90323952D01*
X139152381Y-90337003D01*
X139196941Y-90341212D01*
X139217587Y-90341434D01*
X139272141Y-90339639D01*
X139310715Y-90331125D01*
X139336265Y-90311203D01*
X139351750Y-90275180D01*
X139360126Y-90218365D01*
X139364350Y-90136069D01*
X139365207Y-90107263D01*
X139365484Y-89978908D01*
X139357725Y-89875509D01*
X139340886Y-89791296D01*
X139313920Y-89720495D01*
X139286544Y-89672911D01*
X139225518Y-89602853D01*
X139151019Y-89551454D01*
X139069391Y-89520562D01*
X138986976Y-89512029D01*
X138910120Y-89527703D01*
X138867567Y-89550727D01*
X138816358Y-89587253D01*
X138816125Y-89401037D01*
X138814178Y-89307525D01*
X138808848Y-89234864D01*
X138800522Y-89187455D01*
X138796429Y-89176528D01*
X138761802Y-89140857D01*
X138707067Y-89121328D01*
X138640642Y-89120688D01*
X138630442Y-89122344D01*
X138605317Y-89127033D01*
X138584914Y-89132913D01*
X138568739Y-89143040D01*
X138556304Y-89160468D01*
X138547118Y-89188253D01*
X138540689Y-89229452D01*
X138536527Y-89287119D01*
X138534141Y-89364311D01*
X138533041Y-89464082D01*
X138532736Y-89589489D01*
X138532735Y-89730742D01*
X138532707Y-89885513D01*
X138004464Y-89885513D01*
X138007741Y-89868675D01*
X138038696Y-89828585D01*
X138090290Y-89797174D01*
X138149813Y-89793351D01*
X138220800Y-89817024D01*
X138233885Y-89823579D01*
X138276778Y-89843501D01*
X138305728Y-89847953D01*
X138333308Y-89838491D01*
X138337328Y-89836385D01*
X138383900Y-89796664D01*
X138420015Y-89739174D01*
X138437607Y-89677568D01*
X138438194Y-89665623D01*
X138433809Y-89633008D01*
X138416137Y-89606829D01*
X138378406Y-89578147D01*
X138365738Y-89569976D01*
X138263199Y-89521777D01*
X138156854Y-89501674D01*
X138051433Y-89507945D01*
X137951668Y-89538866D01*
X137862289Y-89592715D01*
X137788029Y-89667769D01*
X137733617Y-89762307D01*
X137718319Y-89805702D01*
X137703490Y-89902828D01*
X137596563Y-89902828D01*
X137595471Y-89877499D01*
X137591013Y-89829171D01*
X137583904Y-89793024D01*
X137573063Y-89762616D01*
X137557408Y-89731505D01*
X137546237Y-89711554D01*
X137480808Y-89619677D01*
X137403991Y-89556136D01*
X137318848Y-89520475D01*
X137227530Y-89509647D01*
X137145146Y-89526404D01*
X137085272Y-89562068D01*
X137039238Y-89600803D01*
X137029831Y-89563324D01*
X137007535Y-89533084D01*
X136964513Y-89513156D01*
X136910254Y-89504899D01*
X136854248Y-89509672D01*
X136805983Y-89528832D01*
X136802990Y-89530851D01*
X136791879Y-89539507D01*
X136783408Y-89550572D01*
X136777218Y-89568064D01*
X136772953Y-89595999D01*
X136770254Y-89638396D01*
X136768763Y-89699272D01*
X136768122Y-89782645D01*
X136767973Y-89892532D01*
X136767971Y-89923879D01*
X136654802Y-89923879D01*
X136659347Y-89585348D01*
X136617942Y-89543944D01*
X136588863Y-89519171D01*
X136559080Y-89508583D01*
X136515576Y-89508574D01*
X136496284Y-89510251D01*
X136431933Y-89522957D01*
X136395787Y-89545678D01*
X136395040Y-89546668D01*
X136387760Y-89564521D01*
X136382235Y-89597814D01*
X136378285Y-89649862D01*
X136375727Y-89723982D01*
X136374380Y-89823489D01*
X136374050Y-89929589D01*
X136271403Y-89929589D01*
X136271631Y-89916000D01*
X136269746Y-89848232D01*
X136262219Y-89799385D01*
X136246239Y-89756993D01*
X136228410Y-89724302D01*
X136166463Y-89640186D01*
X136093287Y-89575314D01*
X136013654Y-89531530D01*
X135932334Y-89510677D01*
X135854098Y-89514597D01*
X135783716Y-89545135D01*
X135777044Y-89549910D01*
X135749209Y-89568149D01*
X135729809Y-89566656D01*
X135704053Y-89543949D01*
X135702546Y-89542443D01*
X135656784Y-89516054D01*
X135596818Y-89505859D01*
X135535907Y-89512601D01*
X135495174Y-89530851D01*
X135460154Y-89555380D01*
X135460154Y-90654784D01*
X134354464Y-90654784D01*
X134341619Y-90617958D01*
X134326392Y-90500681D01*
G37*
X131932000Y-97501064D02*
X131932000Y-96046936D01*
X133752000Y-97501064D02*
X133752000Y-96046936D01*
X144780000Y-92222000D02*
X142830000Y-92222000D01*
X144780000Y-102342000D02*
X148280000Y-102342000D01*
X144780000Y-102342000D02*
X142830000Y-102342000D01*
X144780000Y-92222000D02*
X146730000Y-92222000D01*
X137295000Y-98562000D02*
X137295000Y-102447000D01*
X139565000Y-102447000D02*
X139565000Y-98562000D01*
X137295000Y-102447000D02*
X139565000Y-102447000D01*
X137668000Y-93182000D02*
X137018000Y-93182000D01*
X137668000Y-96302000D02*
X137018000Y-96302000D01*
X137668000Y-93182000D02*
X138318000Y-93182000D01*
X137668000Y-96302000D02*
X139343000Y-96302000D01*
G36*
X149948344Y-101345444D02*
G01*
X149796103Y-101419898D01*
X149796103Y-101272102D01*
X149948344Y-101345444D01*
G37*
G36*
X149218763Y-100642949D02*
G01*
X149228041Y-100580401D01*
X149243405Y-100519063D01*
X149264708Y-100459527D01*
X149291743Y-100402366D01*
X149324251Y-100348129D01*
X149361919Y-100297340D01*
X149404383Y-100250488D01*
X149451235Y-100208024D01*
X149502024Y-100170356D01*
X149556260Y-100137848D01*
X149613422Y-100110813D01*
X149672958Y-100089510D01*
X149734296Y-100074146D01*
X149796844Y-100064868D01*
X149860000Y-100061765D01*
X149923156Y-100064868D01*
X149985704Y-100074146D01*
X150047042Y-100089510D01*
X150106578Y-100110813D01*
X150163740Y-100137848D01*
X150217976Y-100170356D01*
X150268765Y-100208024D01*
X150315617Y-100250488D01*
X150358081Y-100297340D01*
X150395749Y-100348129D01*
X150428257Y-100402366D01*
X150455292Y-100459527D01*
X150476595Y-100519063D01*
X150491959Y-100580401D01*
X150501237Y-100642949D01*
X150504340Y-100706105D01*
X150504340Y-101985895D01*
X150501237Y-102049051D01*
X150491959Y-102111599D01*
X150476595Y-102172937D01*
X150455292Y-102232473D01*
X150428257Y-102289634D01*
X150395749Y-102343871D01*
X150358081Y-102394660D01*
X150315617Y-102441512D01*
X150268765Y-102483976D01*
X150217976Y-102521644D01*
X150163740Y-102554152D01*
X150106578Y-102581187D01*
X150047042Y-102602490D01*
X149985704Y-102617854D01*
X149923156Y-102627132D01*
X149860000Y-102630235D01*
X149796844Y-102627132D01*
X149734296Y-102617854D01*
X149672958Y-102602490D01*
X149613422Y-102581187D01*
X149556260Y-102554152D01*
X149502024Y-102521644D01*
X149451235Y-102483976D01*
X149404383Y-102441512D01*
X149361919Y-102394660D01*
X149324251Y-102343871D01*
X149291743Y-102289634D01*
X149264708Y-102232473D01*
X149243405Y-102172937D01*
X149228041Y-102111599D01*
X149218763Y-102049051D01*
X149215660Y-101985895D01*
X149215660Y-101630480D01*
X149447171Y-101630480D01*
X149466062Y-101689932D01*
X149500233Y-101738271D01*
X149538293Y-101754384D01*
X149594967Y-101735493D01*
X150215044Y-101435456D01*
X150258383Y-101398784D01*
X150272829Y-101346556D01*
X150257272Y-101293771D01*
X150216156Y-101256544D01*
X149594967Y-100956507D01*
X149538293Y-100937616D01*
X149500511Y-100953729D01*
X149467173Y-101002068D01*
X149448282Y-101061520D01*
X149458839Y-101097080D01*
X149479397Y-101117082D01*
X149511623Y-101134307D01*
X149631638Y-101192092D01*
X149631638Y-101499908D01*
X149511623Y-101557693D01*
X149478286Y-101574917D01*
X149457172Y-101594920D01*
X149447171Y-101630480D01*
X149215660Y-101630480D01*
X149215660Y-100706105D01*
X149218763Y-100642949D01*
G37*
%LPC*%
D14*
X153788000Y-81076800D03*
X156088400Y-81076800D03*
D15*
X157040000Y-82419000D03*
X152840000Y-82419000D03*
D16*
X158315000Y-80534000D03*
X151565000Y-80534000D03*
D17*
X153956000Y-86487000D03*
D18*
X153956000Y-89027000D03*
X153956000Y-91567000D03*
X153956000Y-94107000D03*
X153956000Y-96647000D03*
X156496000Y-96647000D03*
X156496000Y-94107000D03*
X156496000Y-91567000D03*
X156496000Y-89027000D03*
X156496000Y-86487000D03*
D19*
X135636000Y-81223000D03*
X135636000Y-84173000D03*
D20*
X150876000Y-87822500D03*
X150876000Y-84897500D03*
D21*
X130048000Y-94185000D03*
X130048000Y-91235000D03*
D22*
X128905000Y-88648000D03*
X130175000Y-88648000D03*
X131445000Y-88648000D03*
X132715000Y-88648000D03*
X132715000Y-81448000D03*
X131445000Y-81448000D03*
X130175000Y-81448000D03*
X128905000Y-81448000D03*
D20*
X135636000Y-101664500D03*
X135636000Y-98739500D03*
D23*
X121721880Y-88579180D03*
X121721880Y-81584020D03*
D24*
X122219720Y-86079820D03*
X122219720Y-84083380D03*
D19*
X138438000Y-81223000D03*
X138438000Y-84173000D03*
D25*
X150876000Y-95311500D03*
X150876000Y-98236500D03*
D14*
X156092000Y-101803200D03*
X153791600Y-101803200D03*
D15*
X152840000Y-100461000D03*
X157040000Y-100461000D03*
D16*
X151565000Y-102346000D03*
X158315000Y-102346000D03*
D26*
X147280000Y-90043000D03*
X147280000Y-88773000D03*
X147280000Y-87503000D03*
X147280000Y-86233000D03*
X147280000Y-84963000D03*
X147280000Y-83693000D03*
X147280000Y-82423000D03*
X147280000Y-81153000D03*
X142280000Y-81153000D03*
X142280000Y-82423000D03*
X142280000Y-83693000D03*
X142280000Y-84963000D03*
X142280000Y-86233000D03*
X142280000Y-87503000D03*
X142280000Y-88773000D03*
X142280000Y-90043000D03*
D20*
X132842000Y-98236500D03*
X132842000Y-95311500D03*
D26*
X147280000Y-101727000D03*
X147280000Y-100457000D03*
X147280000Y-99187000D03*
X147280000Y-97917000D03*
X147280000Y-96647000D03*
X147280000Y-95377000D03*
X147280000Y-94107000D03*
X147280000Y-92837000D03*
X142280000Y-92837000D03*
X142280000Y-94107000D03*
X142280000Y-95377000D03*
X142280000Y-96647000D03*
X142280000Y-97917000D03*
X142280000Y-99187000D03*
X142280000Y-100457000D03*
X142280000Y-101727000D03*
D27*
X138430000Y-101562000D03*
X138430000Y-98762000D03*
D28*
X138605500Y-95692000D03*
X138605500Y-93792000D03*
X136730500Y-94742000D03*
M02*
