G04 #@! TF.GenerationSoftware,KiCad,Pcbnew,6.0.8-f2edbf62ab~116~ubuntu22.04.1*
G04 #@! TF.CreationDate,2022-11-21T22:24:26-03:00*
G04 #@! TF.ProjectId,pip,7069702e-6b69-4636-9164-5f7063625858,rev?*
G04 #@! TF.SameCoordinates,Original*
G04 #@! TF.FileFunction,Legend,Bot*
G04 #@! TF.FilePolarity,Positive*
%FSLAX46Y46*%
G04 Gerber Fmt 4.6, Leading zero omitted, Abs format (unit mm)*
G04 Created by KiCad (PCBNEW 6.0.8-f2edbf62ab~116~ubuntu22.04.1) date 2022-11-21 22:24:26*
%MOMM*%
%LPD*%
G01*
G04 APERTURE LIST*
G04 Aperture macros list*
%AMRoundRect*
0 Rectangle with rounded corners*
0 $1 Rounding radius*
0 $2 $3 $4 $5 $6 $7 $8 $9 X,Y pos of 4 corners*
0 Add a 4 corners polygon primitive as box body*
4,1,4,$2,$3,$4,$5,$6,$7,$8,$9,$2,$3,0*
0 Add four circle primitives for the rounded corners*
1,1,$1+$1,$2,$3*
1,1,$1+$1,$4,$5*
1,1,$1+$1,$6,$7*
1,1,$1+$1,$8,$9*
0 Add four rect primitives between the rounded corners*
20,1,$1+$1,$2,$3,$4,$5,0*
20,1,$1+$1,$4,$5,$6,$7,0*
20,1,$1+$1,$6,$7,$8,$9,0*
20,1,$1+$1,$8,$9,$2,$3,0*%
G04 Aperture macros list end*
%ADD10C,0.175000*%
%ADD11C,0.150000*%
%ADD12C,0.120000*%
%ADD13C,0.800000*%
%ADD14R,1.700000X1.700000*%
%ADD15O,1.700000X1.700000*%
%ADD16RoundRect,0.250000X0.312500X0.625000X-0.312500X0.625000X-0.312500X-0.625000X0.312500X-0.625000X0*%
%ADD17RoundRect,0.250000X-0.325000X-0.650000X0.325000X-0.650000X0.325000X0.650000X-0.325000X0.650000X0*%
%ADD18RoundRect,0.250000X-0.312500X-0.625000X0.312500X-0.625000X0.312500X0.625000X-0.312500X0.625000X0*%
%ADD19RoundRect,0.250000X0.325000X0.650000X-0.325000X0.650000X-0.325000X-0.650000X0.325000X-0.650000X0*%
%ADD20R,0.800000X1.000000*%
G04 APERTURE END LIST*
D10*
X125882416Y-80525166D02*
X125882416Y-80058500D01*
X125882416Y-80125166D02*
X125849083Y-80091833D01*
X125782416Y-80058500D01*
X125682416Y-80058500D01*
X125615750Y-80091833D01*
X125582416Y-80158500D01*
X125582416Y-80525166D01*
X125582416Y-80158500D02*
X125549083Y-80091833D01*
X125482416Y-80058500D01*
X125382416Y-80058500D01*
X125315750Y-80091833D01*
X125282416Y-80158500D01*
X125282416Y-80525166D01*
X124649083Y-80525166D02*
X124649083Y-80158500D01*
X124682416Y-80091833D01*
X124749083Y-80058500D01*
X124882416Y-80058500D01*
X124949083Y-80091833D01*
X124649083Y-80491833D02*
X124715750Y-80525166D01*
X124882416Y-80525166D01*
X124949083Y-80491833D01*
X124982416Y-80425166D01*
X124982416Y-80358500D01*
X124949083Y-80291833D01*
X124882416Y-80258500D01*
X124715750Y-80258500D01*
X124649083Y-80225166D01*
X124315750Y-80525166D02*
X124315750Y-79825166D01*
X124249083Y-80258500D02*
X124049083Y-80525166D01*
X124049083Y-80058500D02*
X124315750Y-80325166D01*
X123482416Y-80491833D02*
X123549083Y-80525166D01*
X123682416Y-80525166D01*
X123749083Y-80491833D01*
X123782416Y-80425166D01*
X123782416Y-80158500D01*
X123749083Y-80091833D01*
X123682416Y-80058500D01*
X123549083Y-80058500D01*
X123482416Y-80091833D01*
X123449083Y-80158500D01*
X123449083Y-80225166D01*
X123782416Y-80291833D01*
X122615750Y-80525166D02*
X122615750Y-79825166D01*
X122315750Y-80525166D02*
X122315750Y-80158500D01*
X122349083Y-80091833D01*
X122415750Y-80058500D01*
X122515750Y-80058500D01*
X122582416Y-80091833D01*
X122615750Y-80125166D01*
X121682416Y-80525166D02*
X121682416Y-80158500D01*
X121715750Y-80091833D01*
X121782416Y-80058500D01*
X121915750Y-80058500D01*
X121982416Y-80091833D01*
X121682416Y-80491833D02*
X121749083Y-80525166D01*
X121915750Y-80525166D01*
X121982416Y-80491833D01*
X122015750Y-80425166D01*
X122015750Y-80358500D01*
X121982416Y-80291833D01*
X121915750Y-80258500D01*
X121749083Y-80258500D01*
X121682416Y-80225166D01*
X121349083Y-80525166D02*
X121349083Y-80058500D01*
X121349083Y-80191833D02*
X121315750Y-80125166D01*
X121282416Y-80091833D01*
X121215750Y-80058500D01*
X121149083Y-80058500D01*
X120615750Y-80525166D02*
X120615750Y-79825166D01*
X120615750Y-80491833D02*
X120682416Y-80525166D01*
X120815750Y-80525166D01*
X120882416Y-80491833D01*
X120915750Y-80458500D01*
X120949083Y-80391833D01*
X120949083Y-80191833D01*
X120915750Y-80125166D01*
X120882416Y-80091833D01*
X120815750Y-80058500D01*
X120682416Y-80058500D01*
X120615750Y-80091833D01*
X120349083Y-80058500D02*
X120215750Y-80525166D01*
X120082416Y-80191833D01*
X119949083Y-80525166D01*
X119815750Y-80058500D01*
X119249083Y-80525166D02*
X119249083Y-80158500D01*
X119282416Y-80091833D01*
X119349083Y-80058500D01*
X119482416Y-80058500D01*
X119549083Y-80091833D01*
X119249083Y-80491833D02*
X119315750Y-80525166D01*
X119482416Y-80525166D01*
X119549083Y-80491833D01*
X119582416Y-80425166D01*
X119582416Y-80358500D01*
X119549083Y-80291833D01*
X119482416Y-80258500D01*
X119315750Y-80258500D01*
X119249083Y-80225166D01*
X118915750Y-80525166D02*
X118915750Y-80058500D01*
X118915750Y-80191833D02*
X118882416Y-80125166D01*
X118849083Y-80091833D01*
X118782416Y-80058500D01*
X118715750Y-80058500D01*
X118215750Y-80491833D02*
X118282416Y-80525166D01*
X118415750Y-80525166D01*
X118482416Y-80491833D01*
X118515750Y-80425166D01*
X118515750Y-80158500D01*
X118482416Y-80091833D01*
X118415750Y-80058500D01*
X118282416Y-80058500D01*
X118215750Y-80091833D01*
X118182416Y-80158500D01*
X118182416Y-80225166D01*
X118515750Y-80291833D01*
X117849083Y-80491833D02*
X117849083Y-80525166D01*
X117882416Y-80591833D01*
X117915750Y-80625166D01*
X121549083Y-81185500D02*
X121549083Y-81652166D01*
X121549083Y-81252166D02*
X121515750Y-81218833D01*
X121449083Y-81185500D01*
X121349083Y-81185500D01*
X121282416Y-81218833D01*
X121249083Y-81285500D01*
X121249083Y-81652166D01*
X120815750Y-81652166D02*
X120882416Y-81618833D01*
X120915750Y-81585500D01*
X120949083Y-81518833D01*
X120949083Y-81318833D01*
X120915750Y-81252166D01*
X120882416Y-81218833D01*
X120815750Y-81185500D01*
X120715750Y-81185500D01*
X120649083Y-81218833D01*
X120615750Y-81252166D01*
X120582416Y-81318833D01*
X120582416Y-81518833D01*
X120615750Y-81585500D01*
X120649083Y-81618833D01*
X120715750Y-81652166D01*
X120815750Y-81652166D01*
X120382416Y-81185500D02*
X120115750Y-81185500D01*
X120282416Y-80952166D02*
X120282416Y-81552166D01*
X120249083Y-81618833D01*
X120182416Y-81652166D01*
X120115750Y-81652166D01*
X119415750Y-81185500D02*
X119282416Y-81652166D01*
X119149083Y-81318833D01*
X119015750Y-81652166D01*
X118882416Y-81185500D01*
X118315750Y-81652166D02*
X118315750Y-81285500D01*
X118349083Y-81218833D01*
X118415750Y-81185500D01*
X118549083Y-81185500D01*
X118615750Y-81218833D01*
X118315750Y-81618833D02*
X118382416Y-81652166D01*
X118549083Y-81652166D01*
X118615750Y-81618833D01*
X118649083Y-81552166D01*
X118649083Y-81485500D01*
X118615750Y-81418833D01*
X118549083Y-81385500D01*
X118382416Y-81385500D01*
X118315750Y-81352166D01*
X117982416Y-81652166D02*
X117982416Y-81185500D01*
X117982416Y-81318833D02*
X117949083Y-81252166D01*
X117915750Y-81218833D01*
X117849083Y-81185500D01*
X117782416Y-81185500D01*
D11*
X141136666Y-84272380D02*
X141470000Y-83796190D01*
X141708095Y-84272380D02*
X141708095Y-83272380D01*
X141327142Y-83272380D01*
X141231904Y-83320000D01*
X141184285Y-83367619D01*
X141136666Y-83462857D01*
X141136666Y-83605714D01*
X141184285Y-83700952D01*
X141231904Y-83748571D01*
X141327142Y-83796190D01*
X141708095Y-83796190D01*
X140660476Y-84272380D02*
X140470000Y-84272380D01*
X140374761Y-84224761D01*
X140327142Y-84177142D01*
X140231904Y-84034285D01*
X140184285Y-83843809D01*
X140184285Y-83462857D01*
X140231904Y-83367619D01*
X140279523Y-83320000D01*
X140374761Y-83272380D01*
X140565238Y-83272380D01*
X140660476Y-83320000D01*
X140708095Y-83367619D01*
X140755714Y-83462857D01*
X140755714Y-83700952D01*
X140708095Y-83796190D01*
X140660476Y-83843809D01*
X140565238Y-83891428D01*
X140374761Y-83891428D01*
X140279523Y-83843809D01*
X140231904Y-83796190D01*
X140184285Y-83700952D01*
X133262666Y-89765142D02*
X133310285Y-89812761D01*
X133453142Y-89860380D01*
X133548380Y-89860380D01*
X133691238Y-89812761D01*
X133786476Y-89717523D01*
X133834095Y-89622285D01*
X133881714Y-89431809D01*
X133881714Y-89288952D01*
X133834095Y-89098476D01*
X133786476Y-89003238D01*
X133691238Y-88908000D01*
X133548380Y-88860380D01*
X133453142Y-88860380D01*
X133310285Y-88908000D01*
X133262666Y-88955619D01*
X132357904Y-88860380D02*
X132834095Y-88860380D01*
X132881714Y-89336571D01*
X132834095Y-89288952D01*
X132738857Y-89241333D01*
X132500761Y-89241333D01*
X132405523Y-89288952D01*
X132357904Y-89336571D01*
X132310285Y-89431809D01*
X132310285Y-89669904D01*
X132357904Y-89765142D01*
X132405523Y-89812761D01*
X132500761Y-89860380D01*
X132738857Y-89860380D01*
X132834095Y-89812761D01*
X132881714Y-89765142D01*
X146216666Y-95059880D02*
X146550000Y-94583690D01*
X146788095Y-95059880D02*
X146788095Y-94059880D01*
X146407142Y-94059880D01*
X146311904Y-94107500D01*
X146264285Y-94155119D01*
X146216666Y-94250357D01*
X146216666Y-94393214D01*
X146264285Y-94488452D01*
X146311904Y-94536071D01*
X146407142Y-94583690D01*
X146788095Y-94583690D01*
X145311904Y-94059880D02*
X145788095Y-94059880D01*
X145835714Y-94536071D01*
X145788095Y-94488452D01*
X145692857Y-94440833D01*
X145454761Y-94440833D01*
X145359523Y-94488452D01*
X145311904Y-94536071D01*
X145264285Y-94631309D01*
X145264285Y-94869404D01*
X145311904Y-94964642D01*
X145359523Y-95012261D01*
X145454761Y-95059880D01*
X145692857Y-95059880D01*
X145788095Y-95012261D01*
X145835714Y-94964642D01*
X146216666Y-91894980D02*
X146550000Y-91418790D01*
X146788095Y-91894980D02*
X146788095Y-90894980D01*
X146407142Y-90894980D01*
X146311904Y-90942600D01*
X146264285Y-90990219D01*
X146216666Y-91085457D01*
X146216666Y-91228314D01*
X146264285Y-91323552D01*
X146311904Y-91371171D01*
X146407142Y-91418790D01*
X146788095Y-91418790D01*
X145359523Y-91228314D02*
X145359523Y-91894980D01*
X145597619Y-90847361D02*
X145835714Y-91561647D01*
X145216666Y-91561647D01*
X146216666Y-98224680D02*
X146550000Y-97748490D01*
X146788095Y-98224680D02*
X146788095Y-97224680D01*
X146407142Y-97224680D01*
X146311904Y-97272300D01*
X146264285Y-97319919D01*
X146216666Y-97415157D01*
X146216666Y-97558014D01*
X146264285Y-97653252D01*
X146311904Y-97700871D01*
X146407142Y-97748490D01*
X146788095Y-97748490D01*
X145359523Y-97224680D02*
X145550000Y-97224680D01*
X145645238Y-97272300D01*
X145692857Y-97319919D01*
X145788095Y-97462776D01*
X145835714Y-97653252D01*
X145835714Y-98034204D01*
X145788095Y-98129442D01*
X145740476Y-98177061D01*
X145645238Y-98224680D01*
X145454761Y-98224680D01*
X145359523Y-98177061D01*
X145311904Y-98129442D01*
X145264285Y-98034204D01*
X145264285Y-97796109D01*
X145311904Y-97700871D01*
X145359523Y-97653252D01*
X145454761Y-97605633D01*
X145645238Y-97605633D01*
X145740476Y-97653252D01*
X145788095Y-97700871D01*
X145835714Y-97796109D01*
X146216666Y-82400380D02*
X146550000Y-81924190D01*
X146788095Y-82400380D02*
X146788095Y-81400380D01*
X146407142Y-81400380D01*
X146311904Y-81448000D01*
X146264285Y-81495619D01*
X146216666Y-81590857D01*
X146216666Y-81733714D01*
X146264285Y-81828952D01*
X146311904Y-81876571D01*
X146407142Y-81924190D01*
X146788095Y-81924190D01*
X145264285Y-82400380D02*
X145835714Y-82400380D01*
X145550000Y-82400380D02*
X145550000Y-81400380D01*
X145645238Y-81543238D01*
X145740476Y-81638476D01*
X145835714Y-81686095D01*
X143930666Y-84939142D02*
X143978285Y-84986761D01*
X144121142Y-85034380D01*
X144216380Y-85034380D01*
X144359238Y-84986761D01*
X144454476Y-84891523D01*
X144502095Y-84796285D01*
X144549714Y-84605809D01*
X144549714Y-84462952D01*
X144502095Y-84272476D01*
X144454476Y-84177238D01*
X144359238Y-84082000D01*
X144216380Y-84034380D01*
X144121142Y-84034380D01*
X143978285Y-84082000D01*
X143930666Y-84129619D01*
X143073523Y-84367714D02*
X143073523Y-85034380D01*
X143311619Y-83986761D02*
X143549714Y-84701047D01*
X142930666Y-84701047D01*
X146216666Y-101135580D02*
X146550000Y-100659390D01*
X146788095Y-101135580D02*
X146788095Y-100135580D01*
X146407142Y-100135580D01*
X146311904Y-100183200D01*
X146264285Y-100230819D01*
X146216666Y-100326057D01*
X146216666Y-100468914D01*
X146264285Y-100564152D01*
X146311904Y-100611771D01*
X146407142Y-100659390D01*
X146788095Y-100659390D01*
X145883333Y-100135580D02*
X145216666Y-100135580D01*
X145645238Y-101135580D01*
X143930666Y-91797142D02*
X143978285Y-91844761D01*
X144121142Y-91892380D01*
X144216380Y-91892380D01*
X144359238Y-91844761D01*
X144454476Y-91749523D01*
X144502095Y-91654285D01*
X144549714Y-91463809D01*
X144549714Y-91320952D01*
X144502095Y-91130476D01*
X144454476Y-91035238D01*
X144359238Y-90940000D01*
X144216380Y-90892380D01*
X144121142Y-90892380D01*
X143978285Y-90940000D01*
X143930666Y-90987619D01*
X143597333Y-90892380D02*
X142978285Y-90892380D01*
X143311619Y-91273333D01*
X143168761Y-91273333D01*
X143073523Y-91320952D01*
X143025904Y-91368571D01*
X142978285Y-91463809D01*
X142978285Y-91701904D01*
X143025904Y-91797142D01*
X143073523Y-91844761D01*
X143168761Y-91892380D01*
X143454476Y-91892380D01*
X143549714Y-91844761D01*
X143597333Y-91797142D01*
X146216666Y-88476080D02*
X146550000Y-87999890D01*
X146788095Y-88476080D02*
X146788095Y-87476080D01*
X146407142Y-87476080D01*
X146311904Y-87523700D01*
X146264285Y-87571319D01*
X146216666Y-87666557D01*
X146216666Y-87809414D01*
X146264285Y-87904652D01*
X146311904Y-87952271D01*
X146407142Y-87999890D01*
X146788095Y-87999890D01*
X145883333Y-87476080D02*
X145264285Y-87476080D01*
X145597619Y-87857033D01*
X145454761Y-87857033D01*
X145359523Y-87904652D01*
X145311904Y-87952271D01*
X145264285Y-88047509D01*
X145264285Y-88285604D01*
X145311904Y-88380842D01*
X145359523Y-88428461D01*
X145454761Y-88476080D01*
X145740476Y-88476080D01*
X145835714Y-88428461D01*
X145883333Y-88380842D01*
X146216666Y-85565280D02*
X146550000Y-85089090D01*
X146788095Y-85565280D02*
X146788095Y-84565280D01*
X146407142Y-84565280D01*
X146311904Y-84612900D01*
X146264285Y-84660519D01*
X146216666Y-84755757D01*
X146216666Y-84898614D01*
X146264285Y-84993852D01*
X146311904Y-85041471D01*
X146407142Y-85089090D01*
X146788095Y-85089090D01*
X145835714Y-84660519D02*
X145788095Y-84612900D01*
X145692857Y-84565280D01*
X145454761Y-84565280D01*
X145359523Y-84612900D01*
X145311904Y-84660519D01*
X145264285Y-84755757D01*
X145264285Y-84850995D01*
X145311904Y-84993852D01*
X145883333Y-85565280D01*
X145264285Y-85565280D01*
X133230857Y-93924380D02*
X133564190Y-93448190D01*
X133802285Y-93924380D02*
X133802285Y-92924380D01*
X133421333Y-92924380D01*
X133326095Y-92972000D01*
X133278476Y-93019619D01*
X133230857Y-93114857D01*
X133230857Y-93257714D01*
X133278476Y-93352952D01*
X133326095Y-93400571D01*
X133421333Y-93448190D01*
X133802285Y-93448190D01*
X132278476Y-93924380D02*
X132849904Y-93924380D01*
X132564190Y-93924380D02*
X132564190Y-92924380D01*
X132659428Y-93067238D01*
X132754666Y-93162476D01*
X132849904Y-93210095D01*
X131659428Y-92924380D02*
X131564190Y-92924380D01*
X131468952Y-92972000D01*
X131421333Y-93019619D01*
X131373714Y-93114857D01*
X131326095Y-93305333D01*
X131326095Y-93543428D01*
X131373714Y-93733904D01*
X131421333Y-93829142D01*
X131468952Y-93876761D01*
X131564190Y-93924380D01*
X131659428Y-93924380D01*
X131754666Y-93876761D01*
X131802285Y-93829142D01*
X131849904Y-93733904D01*
X131897523Y-93543428D01*
X131897523Y-93305333D01*
X131849904Y-93114857D01*
X131802285Y-93019619D01*
X131754666Y-92972000D01*
X131659428Y-92924380D01*
D12*
X143221064Y-82858000D02*
X141766936Y-82858000D01*
X143221064Y-81038000D02*
X141766936Y-81038000D01*
G36*
X141878315Y-102082200D02*
G01*
X141878315Y-101427621D01*
X142583694Y-101427621D01*
X142597187Y-101541921D01*
X142637669Y-101659396D01*
X142701169Y-101714959D01*
X142794831Y-101680034D01*
X142850394Y-101608596D01*
X142826581Y-101537952D01*
X142802769Y-101426034D01*
X142837694Y-101332371D01*
X142876984Y-101359359D01*
X142899606Y-101440321D01*
X142920244Y-101543509D01*
X142959931Y-101643521D01*
X143036925Y-101720515D01*
X143098639Y-101743732D01*
X143174244Y-101751471D01*
X143250642Y-101743732D01*
X143314738Y-101720515D01*
X143401256Y-101633996D01*
X143428597Y-101560530D01*
X143445001Y-101475599D01*
X143450469Y-101379202D01*
X143440591Y-101278396D01*
X143410958Y-101180236D01*
X143361569Y-101084721D01*
X143301244Y-101054559D01*
X143249253Y-101069640D01*
X143175831Y-101114884D01*
X143148844Y-101171240D01*
X143187738Y-101276809D01*
X143226631Y-101397459D01*
X143217106Y-101470087D01*
X143188531Y-101494296D01*
X143162337Y-101467706D01*
X143144081Y-101387934D01*
X143118284Y-101288318D01*
X143069469Y-101189496D01*
X142979775Y-101113296D01*
X142912902Y-101090674D01*
X142834519Y-101083134D01*
X142744222Y-101096913D01*
X142673991Y-101138252D01*
X142623826Y-101207149D01*
X142593727Y-101303606D01*
X142583694Y-101427621D01*
X141878315Y-101427621D01*
X141878315Y-100800559D01*
X142599569Y-100800559D01*
X142609094Y-100892634D01*
X142642431Y-100934702D01*
X142684500Y-100948990D01*
X142739269Y-100951371D01*
X143294894Y-100951371D01*
X143349663Y-100948990D01*
X143391731Y-100935496D01*
X143422688Y-100897198D01*
X143433006Y-100826752D01*
X143411575Y-100710865D01*
X143348869Y-100676734D01*
X143411972Y-100598351D01*
X143433006Y-100480677D01*
X143419072Y-100391337D01*
X143377267Y-100306405D01*
X143307594Y-100225884D01*
X143219488Y-100160620D01*
X143122385Y-100121462D01*
X143016288Y-100108409D01*
X142910278Y-100121550D01*
X142813440Y-100160973D01*
X142725775Y-100226677D01*
X142656542Y-100308081D01*
X142615003Y-100394600D01*
X142601156Y-100486234D01*
X142620206Y-100584659D01*
X142655925Y-100646571D01*
X142688469Y-100675146D01*
X142621794Y-100711262D01*
X142599569Y-100800559D01*
X141878315Y-100800559D01*
X141878315Y-99311484D01*
X142209044Y-99311484D01*
X142219759Y-99391653D01*
X142251906Y-99432134D01*
X142293975Y-99447215D01*
X142348744Y-99449596D01*
X142699581Y-99449596D01*
X142626953Y-99535718D01*
X142602744Y-99635334D01*
X142616149Y-99735258D01*
X142656366Y-99823364D01*
X142723394Y-99899652D01*
X142809824Y-99958302D01*
X142908249Y-99993491D01*
X143018669Y-100005221D01*
X143298069Y-100005221D01*
X143352837Y-100002840D01*
X143394906Y-99987759D01*
X143425863Y-99946881D01*
X143436181Y-99865521D01*
X143425863Y-99786940D01*
X143394906Y-99744871D01*
X143352044Y-99729790D01*
X143294894Y-99727409D01*
X143017081Y-99727409D01*
X142915481Y-99690896D01*
X142878969Y-99598027D01*
X142913100Y-99498809D01*
X142990094Y-99449596D01*
X143298069Y-99449596D01*
X143352837Y-99447215D01*
X143394906Y-99432134D01*
X143425863Y-99391256D01*
X143436181Y-99309896D01*
X143425466Y-99229331D01*
X143393319Y-99187659D01*
X143352044Y-99174165D01*
X143296481Y-99171784D01*
X142347156Y-99171784D01*
X142292387Y-99174165D01*
X142251906Y-99187659D01*
X142219759Y-99229727D01*
X142209044Y-99311484D01*
X141878315Y-99311484D01*
X141878315Y-98705059D01*
X142313819Y-98705059D01*
X142328503Y-98791181D01*
X142372556Y-98833646D01*
X142453519Y-98841584D01*
X142609094Y-98841584D01*
X142602744Y-98947153D01*
X142605125Y-99001127D01*
X142620206Y-99043196D01*
X142661084Y-99074152D01*
X142742444Y-99084471D01*
X142823009Y-99073756D01*
X142864681Y-99041609D01*
X142878175Y-98999540D01*
X142880556Y-98944771D01*
X142874206Y-98841584D01*
X143093281Y-98841584D01*
X143155194Y-98855078D01*
X143174244Y-98905878D01*
X143176625Y-98963027D01*
X143191706Y-99005096D01*
X143298069Y-99041609D01*
X143378634Y-99030496D01*
X143420306Y-98997159D01*
X143433800Y-98955090D01*
X143436181Y-98901909D01*
X143427891Y-98800662D01*
X143403020Y-98717053D01*
X143361569Y-98651084D01*
X143300362Y-98603459D01*
X143216224Y-98574884D01*
X143109156Y-98565359D01*
X142874206Y-98565359D01*
X142878969Y-98500271D01*
X142851981Y-98442327D01*
X142759906Y-98419309D01*
X142665450Y-98427246D01*
X142623381Y-98449471D01*
X142602744Y-98512971D01*
X142609094Y-98565359D01*
X142445581Y-98565359D01*
X142391606Y-98567740D01*
X142353506Y-98582821D01*
X142323741Y-98623699D01*
X142313819Y-98705059D01*
X141878315Y-98705059D01*
X141878315Y-97962109D01*
X142599569Y-97962109D01*
X142613063Y-98062033D01*
X142653544Y-98150139D01*
X142721013Y-98226428D01*
X142807884Y-98285077D01*
X142906574Y-98320266D01*
X143017081Y-98331996D01*
X143296481Y-98331996D01*
X143351250Y-98329615D01*
X143391731Y-98316121D01*
X143423878Y-98274053D01*
X143434594Y-98192296D01*
X143419909Y-98103396D01*
X143375856Y-98062121D01*
X143294894Y-98052596D01*
X143015494Y-98052596D01*
X142913894Y-98015290D01*
X142877381Y-97915278D01*
X142915481Y-97813678D01*
X143015494Y-97774784D01*
X143296481Y-97774784D01*
X143351250Y-97772403D01*
X143391731Y-97757321D01*
X143423878Y-97716443D01*
X143434594Y-97635084D01*
X143423878Y-97554518D01*
X143391731Y-97512846D01*
X143349663Y-97499352D01*
X143294894Y-97496971D01*
X142732919Y-97496971D01*
X142679737Y-97499352D01*
X142639256Y-97514434D01*
X142609491Y-97556106D01*
X142599569Y-97636671D01*
X142608697Y-97714856D01*
X142636081Y-97755734D01*
X142701169Y-97771609D01*
X142669419Y-97800184D01*
X142636081Y-97843046D01*
X142599569Y-97962109D01*
X141878315Y-97962109D01*
X141878315Y-97235034D01*
X142210631Y-97235034D01*
X142220950Y-97312424D01*
X142251906Y-97354096D01*
X142290006Y-97367590D01*
X142342394Y-97369971D01*
X142351919Y-97369971D01*
X142404306Y-97367590D01*
X142443994Y-97352509D01*
X142474950Y-97310440D01*
X142483328Y-97235034D01*
X142594806Y-97235034D01*
X142604331Y-97312821D01*
X142636875Y-97353302D01*
X142678150Y-97367590D01*
X142732919Y-97369971D01*
X143386969Y-97369971D01*
X143502503Y-97355684D01*
X143601458Y-97312821D01*
X143683831Y-97241384D01*
X143745567Y-97152837D01*
X143782609Y-97058645D01*
X143794956Y-96958809D01*
X143792575Y-96904834D01*
X143779081Y-96865146D01*
X143738997Y-96834190D01*
X143663194Y-96823871D01*
X143586994Y-96832404D01*
X143545719Y-96858002D01*
X143521906Y-96950077D01*
X143490156Y-97052471D01*
X143445706Y-97085809D01*
X143375856Y-97096921D01*
X142721806Y-97096921D01*
X142640050Y-97112002D01*
X142604331Y-97156453D01*
X142595191Y-97231859D01*
X142594806Y-97235034D01*
X142483328Y-97235034D01*
X142483681Y-97231859D01*
X142474156Y-97154071D01*
X142441613Y-97113590D01*
X142400337Y-97099302D01*
X142345569Y-97096921D01*
X142291594Y-97099302D01*
X142251906Y-97112796D01*
X142220950Y-97154468D01*
X142210631Y-97235034D01*
X141878315Y-97235034D01*
X141878315Y-96270627D01*
X142375731Y-96270627D01*
X142380053Y-96374168D01*
X142393017Y-96469947D01*
X142414625Y-96557965D01*
X142463044Y-96677226D01*
X142530512Y-96782596D01*
X142619413Y-96870504D01*
X142732125Y-96937377D01*
X142816792Y-96968687D01*
X142904633Y-96987472D01*
X142995650Y-96993734D01*
X143123841Y-96984209D01*
X143230600Y-96955634D01*
X143316920Y-96911581D01*
X143383794Y-96855621D01*
X143449058Y-96769191D01*
X143488216Y-96677116D01*
X143501269Y-96579396D01*
X143485394Y-96483352D01*
X143437769Y-96404771D01*
X143362759Y-96352384D01*
X143264731Y-96334921D01*
X143226631Y-96338096D01*
X143269494Y-96275787D01*
X143283781Y-96193634D01*
X143264136Y-96106520D01*
X143205200Y-96029327D01*
X143118483Y-95975154D01*
X143015494Y-95957096D01*
X142926153Y-95968738D01*
X142846513Y-96003663D01*
X142776575Y-96061871D01*
X142703352Y-96164860D01*
X142678944Y-96264277D01*
X142694819Y-96347026D01*
X142742444Y-96400009D01*
X142694025Y-96430965D01*
X142677356Y-96507165D01*
X142694025Y-96580190D01*
X142732125Y-96600034D01*
X142778956Y-96596859D01*
X143185356Y-96542884D01*
X143269494Y-96531771D01*
X143295688Y-96543677D01*
X143302831Y-96580984D01*
X143296481Y-96630196D01*
X143270288Y-96684965D01*
X143218694Y-96739734D01*
X143129794Y-96782596D01*
X143015494Y-96796884D01*
X142899209Y-96786565D01*
X142804356Y-96755609D01*
X142728950Y-96706793D01*
X142671006Y-96642896D01*
X142616326Y-96538915D01*
X142583517Y-96421705D01*
X142572581Y-96291265D01*
X142585546Y-96162854D01*
X142624440Y-96051729D01*
X142689262Y-95957890D01*
X142776310Y-95886893D01*
X142881879Y-95844296D01*
X143005969Y-95830096D01*
X143130323Y-95841121D01*
X143236685Y-95874193D01*
X143325056Y-95929315D01*
X143391202Y-96007543D01*
X143430890Y-96109937D01*
X143444119Y-96236496D01*
X143444119Y-96266659D01*
X143462375Y-96319840D01*
X143529844Y-96334921D01*
X143600488Y-96327777D01*
X143629856Y-96303171D01*
X143642556Y-96234909D01*
X143631791Y-96102551D01*
X143599495Y-95984877D01*
X143545669Y-95881888D01*
X143470312Y-95793584D01*
X143376799Y-95722742D01*
X143268502Y-95672140D01*
X143145421Y-95641779D01*
X143007556Y-95631659D01*
X142883643Y-95641889D01*
X142770137Y-95672581D01*
X142667037Y-95723734D01*
X142577432Y-95791202D01*
X142504407Y-95870842D01*
X142447962Y-95962652D01*
X142407834Y-96062136D01*
X142383757Y-96164794D01*
X142375731Y-96270627D01*
X141878315Y-96270627D01*
X141878315Y-95300930D01*
X144125685Y-95300930D01*
X144125685Y-102082200D01*
X141878315Y-102082200D01*
G37*
G36*
X143055975Y-96185696D02*
G01*
X143082169Y-96252371D01*
X143051212Y-96326190D01*
X142982156Y-96363496D01*
X142972631Y-96363496D01*
X142908337Y-96340477D01*
X142880556Y-96273009D01*
X142911512Y-96196809D01*
X142982156Y-96160296D01*
X142993269Y-96160296D01*
X143055975Y-96185696D01*
G37*
G36*
X143113125Y-100427496D02*
G01*
X143155194Y-100527509D01*
X143112331Y-100625140D01*
X143017875Y-100664034D01*
X142921831Y-100626727D01*
X142877381Y-100526715D01*
X142921831Y-100425115D01*
X143018669Y-100386221D01*
X143113125Y-100427496D01*
G37*
X135686748Y-88498000D02*
X137109252Y-88498000D01*
X135686748Y-90318000D02*
X137109252Y-90318000D01*
X148624936Y-95517500D02*
X150079064Y-95517500D01*
X148624936Y-93697500D02*
X150079064Y-93697500D01*
X148624936Y-92352600D02*
X150079064Y-92352600D01*
X148624936Y-90532600D02*
X150079064Y-90532600D01*
X148624936Y-98682300D02*
X150079064Y-98682300D01*
X148624936Y-96862300D02*
X150079064Y-96862300D01*
X148624936Y-81038000D02*
X150079064Y-81038000D01*
X148624936Y-82858000D02*
X150079064Y-82858000D01*
X143205252Y-85450000D02*
X141782748Y-85450000D01*
X143205252Y-87270000D02*
X141782748Y-87270000D01*
X148624936Y-100027200D02*
X150079064Y-100027200D01*
X148624936Y-101847200D02*
X150079064Y-101847200D01*
G36*
X133549469Y-84085747D02*
G01*
X133578917Y-84155756D01*
X133548914Y-84224098D01*
X133482794Y-84251324D01*
X133415564Y-84225209D01*
X133384449Y-84155201D01*
X133415564Y-84084081D01*
X133483350Y-84056855D01*
X133549469Y-84085747D01*
G37*
G36*
X134013908Y-85965067D02*
G01*
X134004302Y-86029827D01*
X133988394Y-86093333D01*
X133966339Y-86154974D01*
X133938348Y-86214156D01*
X133904690Y-86270310D01*
X133865691Y-86322895D01*
X133821725Y-86371403D01*
X133773217Y-86415369D01*
X133720632Y-86454368D01*
X133664478Y-86488026D01*
X133605296Y-86516017D01*
X133543655Y-86538072D01*
X133480149Y-86553980D01*
X133415389Y-86563586D01*
X133350000Y-86566798D01*
X133284611Y-86563586D01*
X133219851Y-86553980D01*
X133156345Y-86538072D01*
X133094704Y-86516017D01*
X133035522Y-86488026D01*
X132979368Y-86454368D01*
X132926783Y-86415369D01*
X132878275Y-86371403D01*
X132834309Y-86322895D01*
X132795310Y-86270310D01*
X132761652Y-86214156D01*
X132733661Y-86154974D01*
X132711606Y-86093333D01*
X132695698Y-86029827D01*
X132686092Y-85965067D01*
X132682880Y-85899678D01*
X132682880Y-85182551D01*
X132916612Y-85182551D01*
X132924113Y-85238669D01*
X132946616Y-85267006D01*
X132976064Y-85277563D01*
X133014402Y-85279230D01*
X133259989Y-85279230D01*
X133209149Y-85339515D01*
X133192203Y-85409246D01*
X133201586Y-85479193D01*
X133229738Y-85540868D01*
X133276658Y-85594269D01*
X133337159Y-85635324D01*
X133406056Y-85659957D01*
X133483350Y-85668168D01*
X133678930Y-85668168D01*
X133717268Y-85666501D01*
X133746716Y-85655944D01*
X133768386Y-85627329D01*
X133775609Y-85570378D01*
X133768386Y-85515371D01*
X133746716Y-85485923D01*
X133716713Y-85475366D01*
X133676708Y-85473699D01*
X133482239Y-85473699D01*
X133411119Y-85448140D01*
X133385560Y-85383132D01*
X133409452Y-85313679D01*
X133463348Y-85279230D01*
X133678930Y-85279230D01*
X133717268Y-85277563D01*
X133746716Y-85267006D01*
X133768386Y-85238392D01*
X133775609Y-85181440D01*
X133768108Y-85125044D01*
X133745605Y-85095874D01*
X133716713Y-85086428D01*
X133677819Y-85084761D01*
X133013291Y-85084761D01*
X132974953Y-85086428D01*
X132946616Y-85095874D01*
X132924113Y-85125322D01*
X132916612Y-85182551D01*
X132682880Y-85182551D01*
X132682880Y-84785835D01*
X133178867Y-84785835D01*
X133188313Y-84865845D01*
X133216650Y-84948077D01*
X133261100Y-84986971D01*
X133326664Y-84962524D01*
X133365558Y-84912517D01*
X133348889Y-84863067D01*
X133332220Y-84784724D01*
X133356668Y-84719160D01*
X133384171Y-84738051D01*
X133400006Y-84794725D01*
X133414453Y-84866956D01*
X133442234Y-84936965D01*
X133496129Y-84990861D01*
X133539329Y-85007113D01*
X133592252Y-85012530D01*
X133645731Y-85007113D01*
X133690598Y-84990861D01*
X133751161Y-84930297D01*
X133770299Y-84878871D01*
X133781782Y-84819419D01*
X133785610Y-84751942D01*
X133778696Y-84681377D01*
X133757952Y-84612665D01*
X133723380Y-84545805D01*
X133681153Y-84524691D01*
X133644759Y-84535248D01*
X133593364Y-84566919D01*
X133574472Y-84606368D01*
X133601698Y-84680266D01*
X133628924Y-84764721D01*
X133622256Y-84815561D01*
X133602254Y-84832507D01*
X133583918Y-84813894D01*
X133571139Y-84758054D01*
X133553081Y-84688323D01*
X133518910Y-84619147D01*
X133456124Y-84565807D01*
X133409313Y-84549972D01*
X133354445Y-84544694D01*
X133291237Y-84554339D01*
X133242075Y-84583276D01*
X133206960Y-84631505D01*
X133185891Y-84699024D01*
X133178867Y-84785835D01*
X132682880Y-84785835D01*
X132682880Y-84346891D01*
X133189980Y-84346891D01*
X133196648Y-84411344D01*
X133219984Y-84440792D01*
X133249432Y-84450793D01*
X133287770Y-84452460D01*
X133676708Y-84452460D01*
X133715046Y-84450793D01*
X133744494Y-84441348D01*
X133766163Y-84414539D01*
X133773386Y-84365227D01*
X133758384Y-84284106D01*
X133714490Y-84260214D01*
X133758662Y-84205346D01*
X133773386Y-84122974D01*
X133763632Y-84060436D01*
X133734369Y-84000984D01*
X133685598Y-83944619D01*
X133623923Y-83898934D01*
X133555952Y-83871523D01*
X133481683Y-83862386D01*
X133407476Y-83871585D01*
X133339690Y-83899181D01*
X133278324Y-83945174D01*
X133229862Y-84002157D01*
X133200784Y-84062720D01*
X133191091Y-84126864D01*
X133204426Y-84195761D01*
X133229429Y-84239100D01*
X133252210Y-84259103D01*
X133205538Y-84284383D01*
X133189980Y-84346891D01*
X132682880Y-84346891D01*
X132682880Y-83613466D01*
X132914390Y-83613466D01*
X132921891Y-83668473D01*
X132944394Y-83697921D01*
X132974397Y-83708478D01*
X133013291Y-83710145D01*
X133527800Y-83710145D01*
X133578362Y-83716812D01*
X133588919Y-83746261D01*
X133590586Y-83776820D01*
X133600031Y-83795711D01*
X133678930Y-83817936D01*
X133735326Y-83812380D01*
X133764496Y-83795711D01*
X133776164Y-83746816D01*
X133771164Y-83657916D01*
X133751439Y-83587352D01*
X133714490Y-83546791D01*
X133643926Y-83523455D01*
X133541135Y-83515676D01*
X133012180Y-83515676D01*
X132973842Y-83517343D01*
X132944394Y-83526789D01*
X132921891Y-83556237D01*
X132914390Y-83613466D01*
X132682880Y-83613466D01*
X132682880Y-83327875D01*
X132914390Y-83327875D01*
X132916057Y-83366213D01*
X132926614Y-83395661D01*
X132955228Y-83418164D01*
X133012180Y-83425665D01*
X133088856Y-83406774D01*
X133108859Y-83357879D01*
X133108859Y-83326764D01*
X133136640Y-83285647D01*
X133197759Y-83285647D01*
X133191091Y-83357879D01*
X133201648Y-83418720D01*
X133233319Y-83447890D01*
X133288881Y-83454557D01*
X133343888Y-83447334D01*
X133373336Y-83424554D01*
X133386671Y-83356767D01*
X133382226Y-83285647D01*
X133680041Y-83285647D01*
X133742827Y-83275091D01*
X133770053Y-83242864D01*
X133776720Y-83186746D01*
X133769497Y-83131739D01*
X133746161Y-83102291D01*
X133716713Y-83091734D01*
X133677819Y-83090067D01*
X133383338Y-83090067D01*
X133383338Y-83050062D01*
X133370003Y-83008946D01*
X133288881Y-82987832D01*
X133220539Y-83004223D01*
X133197759Y-83053396D01*
X133197759Y-83090067D01*
X133138862Y-83090067D01*
X133057325Y-83105347D01*
X132983843Y-83151186D01*
X132945258Y-83197982D01*
X132922107Y-83256878D01*
X132914390Y-83327875D01*
X132682880Y-83327875D01*
X132682880Y-82756322D01*
X132686092Y-82690933D01*
X132695698Y-82626173D01*
X132711606Y-82562667D01*
X132733661Y-82501026D01*
X132761652Y-82441844D01*
X132795310Y-82385690D01*
X132834309Y-82333105D01*
X132878275Y-82284597D01*
X132926783Y-82240631D01*
X132979368Y-82201632D01*
X133035522Y-82167974D01*
X133094704Y-82139983D01*
X133156345Y-82117928D01*
X133219851Y-82102020D01*
X133284611Y-82092414D01*
X133350000Y-82089202D01*
X133415389Y-82092414D01*
X133480149Y-82102020D01*
X133543655Y-82117928D01*
X133605296Y-82139983D01*
X133664478Y-82167974D01*
X133720632Y-82201632D01*
X133773217Y-82240631D01*
X133821725Y-82284597D01*
X133865691Y-82333105D01*
X133904690Y-82385690D01*
X133938348Y-82441844D01*
X133966339Y-82501026D01*
X133988394Y-82562667D01*
X134004302Y-82626173D01*
X134013908Y-82690933D01*
X134017120Y-82756322D01*
X134017120Y-85899678D01*
X134013908Y-85965067D01*
G37*
X139399800Y-81927200D02*
X139369800Y-81927200D01*
X134391400Y-81978000D02*
X134391400Y-86678000D01*
X136156000Y-81837400D02*
X137656000Y-81837400D01*
X136156000Y-86817200D02*
X137656000Y-86817200D01*
X134416800Y-81940400D02*
X134386800Y-81940400D01*
X134386800Y-86715600D02*
X134416800Y-86715600D01*
X139404000Y-81964800D02*
X139404000Y-86664800D01*
X139399800Y-86664800D02*
X139369800Y-86664800D01*
X143205252Y-88498000D02*
X141782748Y-88498000D01*
X143205252Y-90318000D02*
X141782748Y-90318000D01*
X148624936Y-89187700D02*
X150079064Y-89187700D01*
X148624936Y-87367700D02*
X150079064Y-87367700D01*
X148624936Y-86022900D02*
X150079064Y-86022900D01*
X148624936Y-84202900D02*
X150079064Y-84202900D01*
X134386800Y-100939600D02*
X134416800Y-100939600D01*
X139399800Y-96151200D02*
X139369800Y-96151200D01*
X134416800Y-96164400D02*
X134386800Y-96164400D01*
X139404000Y-96188800D02*
X139404000Y-100888800D01*
X136156000Y-96061400D02*
X137656000Y-96061400D01*
X139399800Y-100888800D02*
X139369800Y-100888800D01*
X136156000Y-101041200D02*
X137656000Y-101041200D01*
X134391400Y-96202000D02*
X134391400Y-100902000D01*
G36*
X133405562Y-99188746D02*
G01*
X133370002Y-99230974D01*
X133328886Y-99211527D01*
X133313329Y-99155964D01*
X133342777Y-99084289D01*
X133405562Y-99048729D01*
X133405562Y-99188746D01*
G37*
G36*
X133978519Y-100226698D02*
G01*
X133969425Y-100288006D01*
X133954366Y-100348126D01*
X133933486Y-100406482D01*
X133906987Y-100462510D01*
X133875123Y-100515670D01*
X133838203Y-100565452D01*
X133796581Y-100611375D01*
X133750658Y-100652997D01*
X133700876Y-100689917D01*
X133647716Y-100721781D01*
X133591688Y-100748280D01*
X133533332Y-100769160D01*
X133473211Y-100784219D01*
X133411904Y-100793313D01*
X133350000Y-100796355D01*
X133288096Y-100793313D01*
X133226789Y-100784219D01*
X133166668Y-100769160D01*
X133108312Y-100748280D01*
X133052284Y-100721781D01*
X132999124Y-100689917D01*
X132949342Y-100652997D01*
X132903419Y-100611375D01*
X132861797Y-100565452D01*
X132824877Y-100515670D01*
X132793013Y-100462510D01*
X132766514Y-100406482D01*
X132745634Y-100348126D01*
X132730575Y-100288006D01*
X132721481Y-100226698D01*
X132718440Y-100164794D01*
X132718440Y-99667695D01*
X132949950Y-99667695D01*
X132960229Y-99727980D01*
X132991066Y-99757706D01*
X133047740Y-99763263D01*
X133156642Y-99763263D01*
X133152197Y-99837161D01*
X133153864Y-99874943D01*
X133164421Y-99904391D01*
X133193036Y-99926061D01*
X133249987Y-99933284D01*
X133306383Y-99925783D01*
X133335554Y-99903280D01*
X133344999Y-99873832D01*
X133346666Y-99835494D01*
X133342221Y-99763263D01*
X133495574Y-99763263D01*
X133538912Y-99772708D01*
X133552247Y-99808268D01*
X133553914Y-99848273D01*
X133564471Y-99877721D01*
X133638925Y-99903280D01*
X133695321Y-99895501D01*
X133724491Y-99872165D01*
X133733937Y-99842717D01*
X133735604Y-99805490D01*
X133729801Y-99734617D01*
X133712391Y-99676091D01*
X133683375Y-99629913D01*
X133640530Y-99596575D01*
X133581634Y-99576573D01*
X133506686Y-99569905D01*
X133342221Y-99569905D01*
X133345555Y-99524344D01*
X133326664Y-99483783D01*
X133262211Y-99467670D01*
X133196092Y-99473226D01*
X133166644Y-99488784D01*
X133152197Y-99533234D01*
X133156642Y-99569905D01*
X133042184Y-99569905D01*
X133004401Y-99571572D01*
X132977731Y-99582129D01*
X132956895Y-99610743D01*
X132949950Y-99667695D01*
X132718440Y-99667695D01*
X132718440Y-99158743D01*
X133137751Y-99158743D01*
X133144558Y-99230835D01*
X133164977Y-99292648D01*
X133199009Y-99344182D01*
X133246654Y-99385438D01*
X133307078Y-99413774D01*
X133372781Y-99423220D01*
X133432232Y-99414747D01*
X133473904Y-99389327D01*
X133506686Y-99314318D01*
X133506686Y-99050951D01*
X133558915Y-99087623D01*
X133580029Y-99160965D01*
X133576695Y-99218472D01*
X133566694Y-99262089D01*
X133562249Y-99274313D01*
X133550025Y-99318763D01*
X133600031Y-99379881D01*
X133651149Y-99394328D01*
X133694418Y-99379534D01*
X133725325Y-99335153D01*
X133743869Y-99261186D01*
X133750050Y-99157631D01*
X133742966Y-99079983D01*
X133721713Y-99011502D01*
X133688792Y-98954689D01*
X133646704Y-98912045D01*
X133584350Y-98873151D01*
X133517305Y-98849815D01*
X133445568Y-98842036D01*
X133358458Y-98852099D01*
X133283819Y-98882288D01*
X133221651Y-98932603D01*
X133175040Y-98997982D01*
X133147073Y-99073361D01*
X133137751Y-99158743D01*
X132718440Y-99158743D01*
X132718440Y-98559779D01*
X133138862Y-98559779D01*
X133148308Y-98639789D01*
X133176645Y-98722021D01*
X133221095Y-98760915D01*
X133286659Y-98736468D01*
X133325552Y-98686461D01*
X133308884Y-98637011D01*
X133292215Y-98558668D01*
X133316662Y-98493104D01*
X133344166Y-98511995D01*
X133360001Y-98568669D01*
X133374448Y-98640900D01*
X133402229Y-98710909D01*
X133456124Y-98764804D01*
X133499324Y-98781056D01*
X133552247Y-98786474D01*
X133605726Y-98781056D01*
X133650593Y-98764804D01*
X133711156Y-98704241D01*
X133730294Y-98652815D01*
X133741777Y-98593363D01*
X133745605Y-98525886D01*
X133738691Y-98455321D01*
X133717947Y-98386609D01*
X133683375Y-98319749D01*
X133641148Y-98298635D01*
X133604754Y-98309192D01*
X133553359Y-98340863D01*
X133534467Y-98380312D01*
X133561693Y-98454210D01*
X133588919Y-98538665D01*
X133582251Y-98589505D01*
X133562249Y-98606451D01*
X133543913Y-98587838D01*
X133531134Y-98531998D01*
X133513076Y-98462267D01*
X133478905Y-98393091D01*
X133416119Y-98339751D01*
X133369308Y-98323916D01*
X133314440Y-98318638D01*
X133251232Y-98328283D01*
X133202070Y-98357220D01*
X133166955Y-98405448D01*
X133145886Y-98472968D01*
X133138862Y-98559779D01*
X132718440Y-98559779D01*
X132718440Y-97978595D01*
X133137751Y-97978595D01*
X133144558Y-98050687D01*
X133164977Y-98112501D01*
X133199009Y-98164035D01*
X133246654Y-98205290D01*
X133307078Y-98233627D01*
X133372781Y-98243073D01*
X133432232Y-98234599D01*
X133473904Y-98209179D01*
X133506686Y-98134170D01*
X133506686Y-97870804D01*
X133558915Y-97907475D01*
X133580029Y-97980818D01*
X133576695Y-98038325D01*
X133566694Y-98081941D01*
X133562249Y-98094165D01*
X133550025Y-98138615D01*
X133600031Y-98199734D01*
X133651149Y-98214180D01*
X133694418Y-98199387D01*
X133725325Y-98155006D01*
X133743869Y-98081038D01*
X133750050Y-97977484D01*
X133742966Y-97899835D01*
X133721713Y-97831354D01*
X133688792Y-97774542D01*
X133646704Y-97731898D01*
X133584350Y-97693004D01*
X133517305Y-97669668D01*
X133445568Y-97661889D01*
X133358458Y-97671952D01*
X133283819Y-97702141D01*
X133221651Y-97752456D01*
X133175040Y-97817834D01*
X133147073Y-97893214D01*
X133137751Y-97978595D01*
X132718440Y-97978595D01*
X132718440Y-97485756D01*
X133144419Y-97485756D01*
X133147197Y-97529650D01*
X133156642Y-97568544D01*
X133179423Y-97603548D01*
X133231096Y-97617439D01*
X133308884Y-97596325D01*
X133351111Y-97535206D01*
X133342221Y-97496868D01*
X133333331Y-97448529D01*
X133354445Y-97392411D01*
X133405562Y-97366296D01*
X133638925Y-97366296D01*
X133677263Y-97364629D01*
X133706711Y-97354073D01*
X133728381Y-97324069D01*
X133735604Y-97267395D01*
X133716712Y-97190719D01*
X133668929Y-97170716D01*
X133246654Y-97170716D01*
X133208316Y-97172383D01*
X133179979Y-97181829D01*
X133157476Y-97211277D01*
X133149975Y-97268506D01*
X133156365Y-97322680D01*
X133175534Y-97351850D01*
X133212205Y-97364074D01*
X133193314Y-97380187D01*
X133163310Y-97425193D01*
X133144419Y-97485756D01*
X132718440Y-97485756D01*
X132718440Y-96939206D01*
X132721481Y-96877302D01*
X132730575Y-96815995D01*
X132745634Y-96755874D01*
X132766514Y-96697518D01*
X132793013Y-96641490D01*
X132824877Y-96588330D01*
X132861797Y-96538548D01*
X132903419Y-96492625D01*
X132949342Y-96451003D01*
X132999124Y-96414083D01*
X133052284Y-96382219D01*
X133108312Y-96355720D01*
X133166668Y-96334840D01*
X133226789Y-96319781D01*
X133288096Y-96310687D01*
X133350000Y-96307645D01*
X133411904Y-96310687D01*
X133473211Y-96319781D01*
X133533332Y-96334840D01*
X133591688Y-96355720D01*
X133647716Y-96382219D01*
X133700876Y-96414083D01*
X133750658Y-96451003D01*
X133796581Y-96492625D01*
X133838203Y-96538548D01*
X133875123Y-96588330D01*
X133906987Y-96641490D01*
X133933486Y-96697518D01*
X133954366Y-96755874D01*
X133969425Y-96815995D01*
X133978519Y-96877302D01*
X133981560Y-96939206D01*
X133981560Y-100164794D01*
X133978519Y-100226698D01*
G37*
G36*
X133405562Y-98008599D02*
G01*
X133370002Y-98050826D01*
X133328886Y-98031379D01*
X133313329Y-97975817D01*
X133342777Y-97904141D01*
X133405562Y-97868581D01*
X133405562Y-98008599D01*
G37*
X135670936Y-92562000D02*
X137125064Y-92562000D01*
X135670936Y-94382000D02*
X137125064Y-94382000D01*
%LPC*%
D13*
X153788000Y-81076800D03*
X156088400Y-81076800D03*
D14*
X153956000Y-86487000D03*
D15*
X153956000Y-89027000D03*
X153956000Y-91567000D03*
X153956000Y-94107000D03*
X153956000Y-96647000D03*
X156496000Y-96647000D03*
X156496000Y-94107000D03*
X156496000Y-91567000D03*
X156496000Y-89027000D03*
X156496000Y-86487000D03*
D13*
X156092000Y-101803200D03*
X153791600Y-101803200D03*
D16*
X143956500Y-81948000D03*
X141031500Y-81948000D03*
D17*
X134923000Y-89408000D03*
X137873000Y-89408000D03*
D18*
X147889500Y-94607500D03*
X150814500Y-94607500D03*
X147889500Y-91442600D03*
X150814500Y-91442600D03*
X147889500Y-97772300D03*
X150814500Y-97772300D03*
X147889500Y-81948000D03*
X150814500Y-81948000D03*
D19*
X143969000Y-86360000D03*
X141019000Y-86360000D03*
D18*
X147889500Y-100937200D03*
X150814500Y-100937200D03*
D20*
X135156000Y-81407000D03*
X135156000Y-87223600D03*
X138656000Y-87223600D03*
X138656000Y-81407000D03*
D19*
X143969000Y-89408000D03*
X141019000Y-89408000D03*
D18*
X147889500Y-88277700D03*
X150814500Y-88277700D03*
X147889500Y-85112900D03*
X150814500Y-85112900D03*
D20*
X135156000Y-95631000D03*
X135156000Y-101447600D03*
X138656000Y-101447600D03*
X138656000Y-95631000D03*
D18*
X134935500Y-93472000D03*
X137860500Y-93472000D03*
M02*
