%TF.GenerationSoftware,KiCad,Pcbnew,6.0.8-f2edbf62ab~116~ubuntu22.04.1*%
%TF.CreationDate,2022-11-21T22:24:38-03:00*%
%TF.ProjectId,pip,7069702e-6b69-4636-9164-5f7063625858,rev?*%
%TF.SameCoordinates,Original*%
%TF.FileFunction,Drillmap*%
%TF.FilePolarity,Positive*%
%FSLAX45Y45*%
G04 Gerber Fmt 4.5, Leading zero omitted, Abs format (unit mm)*
G04 Created by KiCad (PCBNEW 6.0.8-f2edbf62ab~116~ubuntu22.04.1) date 2022-11-21 22:24:38*
%MOMM*%
%LPD*%
G01*
G04 APERTURE LIST*
%ADD10C,0.100000*%
%ADD11C,0.200000*%
%ADD12C,0.076200*%
G04 APERTURE END LIST*
D10*
X15951200Y-10388600D02*
G75*
G03*
X16002000Y-10337800I0J50800D01*
G01*
X15951200Y-10388600D02*
X13411200Y-10388600D01*
X11684000Y-9067800D02*
X11684000Y-7950200D01*
X11734800Y-7899400D02*
G75*
G03*
X11684000Y-7950200I0J-50800D01*
G01*
X16002000Y-7950200D02*
G75*
G03*
X15951200Y-7899400I-50800J0D01*
G01*
X16002000Y-7950200D02*
X16002000Y-10337800D01*
X12598400Y-9118600D02*
X11734800Y-9118600D01*
X13411200Y-10388600D02*
X12598400Y-9118600D01*
X11734800Y-7899400D02*
X15951200Y-7899400D01*
X11684000Y-9067800D02*
G75*
G03*
X11734800Y-9118600I50800J0D01*
G01*
D11*
D12*
X15340700Y-8069580D02*
X15416900Y-8145780D01*
X15416900Y-8069580D02*
X15340700Y-8145780D01*
X15341060Y-10142220D02*
X15417260Y-10218420D01*
X15417260Y-10142220D02*
X15341060Y-10218420D01*
X15570740Y-8069580D02*
X15646940Y-8145780D01*
X15646940Y-8069580D02*
X15570740Y-8145780D01*
X15571100Y-10142220D02*
X15647300Y-10218420D01*
X15647300Y-10142220D02*
X15571100Y-10218420D01*
D11*
X11936619Y-10704076D02*
X11936619Y-10504076D01*
X11984238Y-10504076D01*
X12012809Y-10513600D01*
X12031857Y-10532648D01*
X12041381Y-10551695D01*
X12050905Y-10589790D01*
X12050905Y-10618362D01*
X12041381Y-10656457D01*
X12031857Y-10675505D01*
X12012809Y-10694552D01*
X11984238Y-10704076D01*
X11936619Y-10704076D01*
X12136619Y-10704076D02*
X12136619Y-10570743D01*
X12136619Y-10608838D02*
X12146143Y-10589790D01*
X12155667Y-10580267D01*
X12174714Y-10570743D01*
X12193762Y-10570743D01*
X12260428Y-10704076D02*
X12260428Y-10570743D01*
X12260428Y-10504076D02*
X12250905Y-10513600D01*
X12260428Y-10523124D01*
X12269952Y-10513600D01*
X12260428Y-10504076D01*
X12260428Y-10523124D01*
X12384238Y-10704076D02*
X12365190Y-10694552D01*
X12355667Y-10675505D01*
X12355667Y-10504076D01*
X12489000Y-10704076D02*
X12469952Y-10694552D01*
X12460428Y-10675505D01*
X12460428Y-10504076D01*
X12717571Y-10704076D02*
X12717571Y-10504076D01*
X12784238Y-10646933D01*
X12850905Y-10504076D01*
X12850905Y-10704076D01*
X13031857Y-10704076D02*
X13031857Y-10599314D01*
X13022333Y-10580267D01*
X13003286Y-10570743D01*
X12965190Y-10570743D01*
X12946143Y-10580267D01*
X13031857Y-10694552D02*
X13012809Y-10704076D01*
X12965190Y-10704076D01*
X12946143Y-10694552D01*
X12936619Y-10675505D01*
X12936619Y-10656457D01*
X12946143Y-10637410D01*
X12965190Y-10627886D01*
X13012809Y-10627886D01*
X13031857Y-10618362D01*
X13127095Y-10570743D02*
X13127095Y-10770743D01*
X13127095Y-10580267D02*
X13146143Y-10570743D01*
X13184238Y-10570743D01*
X13203286Y-10580267D01*
X13212809Y-10589790D01*
X13222333Y-10608838D01*
X13222333Y-10665981D01*
X13212809Y-10685029D01*
X13203286Y-10694552D01*
X13184238Y-10704076D01*
X13146143Y-10704076D01*
X13127095Y-10694552D01*
X13308048Y-10685029D02*
X13317571Y-10694552D01*
X13308048Y-10704076D01*
X13298524Y-10694552D01*
X13308048Y-10685029D01*
X13308048Y-10704076D01*
X13308048Y-10580267D02*
X13317571Y-10589790D01*
X13308048Y-10599314D01*
X13298524Y-10589790D01*
X13308048Y-10580267D01*
X13308048Y-10599314D01*
D12*
X11602800Y-10995500D02*
X11679000Y-11071700D01*
X11679000Y-10995500D02*
X11602800Y-11071700D01*
D11*
X11974714Y-10924076D02*
X11993762Y-10924076D01*
X12012809Y-10933600D01*
X12022333Y-10943124D01*
X12031857Y-10962171D01*
X12041381Y-11000267D01*
X12041381Y-11047886D01*
X12031857Y-11085981D01*
X12022333Y-11105029D01*
X12012809Y-11114552D01*
X11993762Y-11124076D01*
X11974714Y-11124076D01*
X11955667Y-11114552D01*
X11946143Y-11105029D01*
X11936619Y-11085981D01*
X11927095Y-11047886D01*
X11927095Y-11000267D01*
X11936619Y-10962171D01*
X11946143Y-10943124D01*
X11955667Y-10933600D01*
X11974714Y-10924076D01*
X12127095Y-11105029D02*
X12136619Y-11114552D01*
X12127095Y-11124076D01*
X12117571Y-11114552D01*
X12127095Y-11105029D01*
X12127095Y-11124076D01*
X12203286Y-10924076D02*
X12336619Y-10924076D01*
X12250905Y-11124076D01*
X12498524Y-10924076D02*
X12460428Y-10924076D01*
X12441381Y-10933600D01*
X12431857Y-10943124D01*
X12412809Y-10971695D01*
X12403286Y-11009790D01*
X12403286Y-11085981D01*
X12412809Y-11105029D01*
X12422333Y-11114552D01*
X12441381Y-11124076D01*
X12479476Y-11124076D01*
X12498524Y-11114552D01*
X12508048Y-11105029D01*
X12517571Y-11085981D01*
X12517571Y-11038362D01*
X12508048Y-11019314D01*
X12498524Y-11009790D01*
X12479476Y-11000267D01*
X12441381Y-11000267D01*
X12422333Y-11009790D01*
X12412809Y-11019314D01*
X12403286Y-11038362D01*
X12593762Y-10943124D02*
X12603286Y-10933600D01*
X12622333Y-10924076D01*
X12669952Y-10924076D01*
X12689000Y-10933600D01*
X12698524Y-10943124D01*
X12708048Y-10962171D01*
X12708048Y-10981219D01*
X12698524Y-11009790D01*
X12584238Y-11124076D01*
X12708048Y-11124076D01*
X12793762Y-11124076D02*
X12793762Y-10990743D01*
X12793762Y-11009790D02*
X12803286Y-11000267D01*
X12822333Y-10990743D01*
X12850905Y-10990743D01*
X12869952Y-11000267D01*
X12879476Y-11019314D01*
X12879476Y-11124076D01*
X12879476Y-11019314D02*
X12889000Y-11000267D01*
X12908048Y-10990743D01*
X12936619Y-10990743D01*
X12955667Y-11000267D01*
X12965190Y-11019314D01*
X12965190Y-11124076D01*
X13060428Y-11124076D02*
X13060428Y-10990743D01*
X13060428Y-11009790D02*
X13069952Y-11000267D01*
X13089000Y-10990743D01*
X13117571Y-10990743D01*
X13136619Y-11000267D01*
X13146143Y-11019314D01*
X13146143Y-11124076D01*
X13146143Y-11019314D02*
X13155667Y-11000267D01*
X13174714Y-10990743D01*
X13203286Y-10990743D01*
X13222333Y-11000267D01*
X13231857Y-11019314D01*
X13231857Y-11124076D01*
X13622333Y-10914552D02*
X13450905Y-11171695D01*
X13879476Y-10924076D02*
X13898524Y-10924076D01*
X13917571Y-10933600D01*
X13927095Y-10943124D01*
X13936619Y-10962171D01*
X13946143Y-11000267D01*
X13946143Y-11047886D01*
X13936619Y-11085981D01*
X13927095Y-11105029D01*
X13917571Y-11114552D01*
X13898524Y-11124076D01*
X13879476Y-11124076D01*
X13860428Y-11114552D01*
X13850905Y-11105029D01*
X13841381Y-11085981D01*
X13831857Y-11047886D01*
X13831857Y-11000267D01*
X13841381Y-10962171D01*
X13850905Y-10943124D01*
X13860428Y-10933600D01*
X13879476Y-10924076D01*
X14031857Y-11105029D02*
X14041381Y-11114552D01*
X14031857Y-11124076D01*
X14022333Y-11114552D01*
X14031857Y-11105029D01*
X14031857Y-11124076D01*
X14165190Y-10924076D02*
X14184238Y-10924076D01*
X14203286Y-10933600D01*
X14212809Y-10943124D01*
X14222333Y-10962171D01*
X14231857Y-11000267D01*
X14231857Y-11047886D01*
X14222333Y-11085981D01*
X14212809Y-11105029D01*
X14203286Y-11114552D01*
X14184238Y-11124076D01*
X14165190Y-11124076D01*
X14146143Y-11114552D01*
X14136619Y-11105029D01*
X14127095Y-11085981D01*
X14117571Y-11047886D01*
X14117571Y-11000267D01*
X14127095Y-10962171D01*
X14136619Y-10943124D01*
X14146143Y-10933600D01*
X14165190Y-10924076D01*
X14298524Y-10924076D02*
X14422333Y-10924076D01*
X14355667Y-11000267D01*
X14384238Y-11000267D01*
X14403286Y-11009790D01*
X14412809Y-11019314D01*
X14422333Y-11038362D01*
X14422333Y-11085981D01*
X14412809Y-11105029D01*
X14403286Y-11114552D01*
X14384238Y-11124076D01*
X14327095Y-11124076D01*
X14308048Y-11114552D01*
X14298524Y-11105029D01*
X14546143Y-10924076D02*
X14565190Y-10924076D01*
X14584238Y-10933600D01*
X14593762Y-10943124D01*
X14603286Y-10962171D01*
X14612809Y-11000267D01*
X14612809Y-11047886D01*
X14603286Y-11085981D01*
X14593762Y-11105029D01*
X14584238Y-11114552D01*
X14565190Y-11124076D01*
X14546143Y-11124076D01*
X14527095Y-11114552D01*
X14517571Y-11105029D01*
X14508048Y-11085981D01*
X14498524Y-11047886D01*
X14498524Y-11000267D01*
X14508048Y-10962171D01*
X14517571Y-10943124D01*
X14527095Y-10933600D01*
X14546143Y-10924076D01*
X14736619Y-10924076D02*
X14755667Y-10924076D01*
X14774714Y-10933600D01*
X14784238Y-10943124D01*
X14793762Y-10962171D01*
X14803286Y-11000267D01*
X14803286Y-11047886D01*
X14793762Y-11085981D01*
X14784238Y-11105029D01*
X14774714Y-11114552D01*
X14755667Y-11124076D01*
X14736619Y-11124076D01*
X14717571Y-11114552D01*
X14708048Y-11105029D01*
X14698524Y-11085981D01*
X14689000Y-11047886D01*
X14689000Y-11000267D01*
X14698524Y-10962171D01*
X14708048Y-10943124D01*
X14717571Y-10933600D01*
X14736619Y-10924076D01*
X14879476Y-10924076D02*
X14879476Y-10962171D01*
X14955667Y-10924076D02*
X14955667Y-10962171D01*
X15250905Y-11200267D02*
X15241381Y-11190743D01*
X15222333Y-11162171D01*
X15212809Y-11143124D01*
X15203286Y-11114552D01*
X15193762Y-11066933D01*
X15193762Y-11028838D01*
X15203286Y-10981219D01*
X15212809Y-10952648D01*
X15222333Y-10933600D01*
X15241381Y-10905029D01*
X15250905Y-10895505D01*
X15412809Y-10990743D02*
X15412809Y-11124076D01*
X15365190Y-10914552D02*
X15317571Y-11057410D01*
X15441381Y-11057410D01*
X15669952Y-11124076D02*
X15669952Y-10924076D01*
X15755667Y-11124076D02*
X15755667Y-11019314D01*
X15746143Y-11000267D01*
X15727095Y-10990743D01*
X15698524Y-10990743D01*
X15679476Y-11000267D01*
X15669952Y-11009790D01*
X15879476Y-11124076D02*
X15860428Y-11114552D01*
X15850905Y-11105029D01*
X15841381Y-11085981D01*
X15841381Y-11028838D01*
X15850905Y-11009790D01*
X15860428Y-11000267D01*
X15879476Y-10990743D01*
X15908048Y-10990743D01*
X15927095Y-11000267D01*
X15936619Y-11009790D01*
X15946143Y-11028838D01*
X15946143Y-11085981D01*
X15936619Y-11105029D01*
X15927095Y-11114552D01*
X15908048Y-11124076D01*
X15879476Y-11124076D01*
X16060428Y-11124076D02*
X16041381Y-11114552D01*
X16031857Y-11095505D01*
X16031857Y-10924076D01*
X16212809Y-11114552D02*
X16193762Y-11124076D01*
X16155667Y-11124076D01*
X16136619Y-11114552D01*
X16127095Y-11095505D01*
X16127095Y-11019314D01*
X16136619Y-11000267D01*
X16155667Y-10990743D01*
X16193762Y-10990743D01*
X16212809Y-11000267D01*
X16222333Y-11019314D01*
X16222333Y-11038362D01*
X16127095Y-11057410D01*
X16298524Y-11114552D02*
X16317571Y-11124076D01*
X16355667Y-11124076D01*
X16374714Y-11114552D01*
X16384238Y-11095505D01*
X16384238Y-11085981D01*
X16374714Y-11066933D01*
X16355667Y-11057410D01*
X16327095Y-11057410D01*
X16308048Y-11047886D01*
X16298524Y-11028838D01*
X16298524Y-11019314D01*
X16308048Y-11000267D01*
X16327095Y-10990743D01*
X16355667Y-10990743D01*
X16374714Y-11000267D01*
X16450905Y-11200267D02*
X16460428Y-11190743D01*
X16479476Y-11162171D01*
X16489000Y-11143124D01*
X16498524Y-11114552D01*
X16508048Y-11066933D01*
X16508048Y-11028838D01*
X16498524Y-10981219D01*
X16489000Y-10952648D01*
X16479476Y-10933600D01*
X16460428Y-10905029D01*
X16450905Y-10895505D01*
X16812810Y-11200267D02*
X16803286Y-11190743D01*
X16784238Y-11162171D01*
X16774714Y-11143124D01*
X16765190Y-11114552D01*
X16755667Y-11066933D01*
X16755667Y-11028838D01*
X16765190Y-10981219D01*
X16774714Y-10952648D01*
X16784238Y-10933600D01*
X16803286Y-10905029D01*
X16812810Y-10895505D01*
X16889000Y-10990743D02*
X16889000Y-11124076D01*
X16889000Y-11009790D02*
X16898524Y-11000267D01*
X16917571Y-10990743D01*
X16946143Y-10990743D01*
X16965190Y-11000267D01*
X16974714Y-11019314D01*
X16974714Y-11124076D01*
X17098524Y-11124076D02*
X17079476Y-11114552D01*
X17069952Y-11105029D01*
X17060429Y-11085981D01*
X17060429Y-11028838D01*
X17069952Y-11009790D01*
X17079476Y-11000267D01*
X17098524Y-10990743D01*
X17127095Y-10990743D01*
X17146143Y-11000267D01*
X17155667Y-11009790D01*
X17165190Y-11028838D01*
X17165190Y-11085981D01*
X17155667Y-11105029D01*
X17146143Y-11114552D01*
X17127095Y-11124076D01*
X17098524Y-11124076D01*
X17222333Y-10990743D02*
X17298524Y-10990743D01*
X17250905Y-10924076D02*
X17250905Y-11095505D01*
X17260429Y-11114552D01*
X17279476Y-11124076D01*
X17298524Y-11124076D01*
X17517571Y-10990743D02*
X17517571Y-11190743D01*
X17517571Y-11000267D02*
X17536619Y-10990743D01*
X17574714Y-10990743D01*
X17593762Y-11000267D01*
X17603286Y-11009790D01*
X17612810Y-11028838D01*
X17612810Y-11085981D01*
X17603286Y-11105029D01*
X17593762Y-11114552D01*
X17574714Y-11124076D01*
X17536619Y-11124076D01*
X17517571Y-11114552D01*
X17727095Y-11124076D02*
X17708048Y-11114552D01*
X17698524Y-11095505D01*
X17698524Y-10924076D01*
X17889000Y-11124076D02*
X17889000Y-11019314D01*
X17879476Y-11000267D01*
X17860429Y-10990743D01*
X17822333Y-10990743D01*
X17803286Y-11000267D01*
X17889000Y-11114552D02*
X17869952Y-11124076D01*
X17822333Y-11124076D01*
X17803286Y-11114552D01*
X17793762Y-11095505D01*
X17793762Y-11076457D01*
X17803286Y-11057410D01*
X17822333Y-11047886D01*
X17869952Y-11047886D01*
X17889000Y-11038362D01*
X17955667Y-10990743D02*
X18031857Y-10990743D01*
X17984238Y-10924076D02*
X17984238Y-11095505D01*
X17993762Y-11114552D01*
X18012810Y-11124076D01*
X18031857Y-11124076D01*
X18174714Y-11114552D02*
X18155667Y-11124076D01*
X18117571Y-11124076D01*
X18098524Y-11114552D01*
X18089000Y-11095505D01*
X18089000Y-11019314D01*
X18098524Y-11000267D01*
X18117571Y-10990743D01*
X18155667Y-10990743D01*
X18174714Y-11000267D01*
X18184238Y-11019314D01*
X18184238Y-11038362D01*
X18089000Y-11057410D01*
X18355667Y-11124076D02*
X18355667Y-10924076D01*
X18355667Y-11114552D02*
X18336619Y-11124076D01*
X18298524Y-11124076D01*
X18279476Y-11114552D01*
X18269952Y-11105029D01*
X18260429Y-11085981D01*
X18260429Y-11028838D01*
X18269952Y-11009790D01*
X18279476Y-11000267D01*
X18298524Y-10990743D01*
X18336619Y-10990743D01*
X18355667Y-11000267D01*
X18431857Y-11200267D02*
X18441381Y-11190743D01*
X18460429Y-11162171D01*
X18469952Y-11143124D01*
X18479476Y-11114552D01*
X18489000Y-11066933D01*
X18489000Y-11028838D01*
X18479476Y-10981219D01*
X18469952Y-10952648D01*
X18460429Y-10933600D01*
X18441381Y-10905029D01*
X18431857Y-10895505D01*
M02*
