M48
; DRILL file {KiCad 6.0.8-f2edbf62ab~116~ubuntu22.04.1} date Mon 21 Nov 2022 10:24:37 PM -03
; FORMAT={-:-/ absolute / metric / decimal}
; #@! TF.CreationDate,2022-11-21T22:24:37-03:00
; #@! TF.GenerationSoftware,Kicad,Pcbnew,6.0.8-f2edbf62ab~116~ubuntu22.04.1
; #@! TF.FileFunction,Plated,1,2,PTH
FMAT,2
METRIC
; #@! TA.AperFunction,Plated,PTH,ViaDrill
T1C0.400
; #@! TA.AperFunction,Plated,PTH,ComponentDrill
T2C1.000
%
G90
G05
T1
X127.531Y-88.505
X131.302Y-95.166
X133.362Y-91.44
X133.631Y-81.399
X136.652Y-87.884
X139.642Y-80.24
X139.7Y-87.376
X140.208Y-102.362
X140.274Y-84.691
X140.376Y-92.896
X140.462Y-96.774
X140.607Y-99.187
X141.147Y-91.844
X144.018Y-94.488
X144.346Y-87.887
X145.042Y-98.699
X145.065Y-96.112
X145.148Y-85.598
X145.179Y-97.131
X145.25Y-84.329
X145.344Y-82.322
X145.639Y-101.727
X145.657Y-100.307
X145.764Y-80.587
X148.76Y-96.041
X149.107Y-94.894
X149.353Y-83.397
X149.354Y-99.419
X151.221Y-83.446
X152.097Y-93.72
X154.432Y-82.55
X157.226Y-98.806
T2
X153.956Y-86.487
X153.956Y-89.027
X153.956Y-91.567
X153.956Y-94.107
X153.956Y-96.647
X156.496Y-86.487
X156.496Y-89.027
X156.496Y-91.567
X156.496Y-94.107
X156.496Y-96.647
T0
M30
